<?xml version="1.0" encoding="utf-8" standalone="no"?>
<!DOCTYPE svg PUBLIC "-//W3C//DTD SVG 1.1//EN"
  "http://www.w3.org/Graphics/SVG/1.1/DTD/svg11.dtd">
<svg xmlns:xlink="http://www.w3.org/1999/xlink" width="460.8pt" height="302.4pt" viewBox="0 0 460.8 302.4" xmlns="http://www.w3.org/2000/svg" version="1.1">
 <metadata>
  <rdf:RDF xmlns:dc="http://purl.org/dc/elements/1.1/" xmlns:cc="http://creativecommons.org/ns#" xmlns:rdf="http://www.w3.org/1999/02/22-rdf-syntax-ns#">
   <cc:Work>
    <dc:type rdf:resource="http://purl.org/dc/dcmitype/StillImage"/>
    <dc:format>image/svg+xml</dc:format>
    <dc:creator>
     <cc:Agent>
      <dc:title>Matplotlib v3.10.9, https://matplotlib.org/</dc:title>
     </cc:Agent>
    </dc:creator>
   </cc:Work>
  </rdf:RDF>
 </metadata>
 <defs>
  <style type="text/css">*{stroke-linejoin: round; stroke-linecap: butt}</style>
 </defs>
 <g id="figure_1">
  <g id="patch_1">
   <path d="M 0 302.4 
L 460.8 302.4 
L 460.8 0 
L 0 0 
z
" style="fill: #ffffff"/>
  </g>
  <g id="axes_1">
   <g id="patch_2">
    <path d="M 55.880346 257.56 
L 450 257.56 
L 450 36.9105 
L 55.880346 36.9105 
z
" style="fill: #ffffff"/>
   </g>
   <g id="matplotlib.axis_1">
    <g id="xtick_1">
     <g id="line2d_1">
      <path d="M 73.794876 257.56 
L 73.794876 36.9105 
" clip-path="url(#p37972332d8)" style="fill: none; stroke: #b0b0b0; stroke-opacity: 0.25; stroke-width: 0.8; stroke-linecap: square"/>
     </g>
     <g id="line2d_2">
      <defs>
       <path id="m2fa05e4320" d="M 0 0 
L 0 3.5 
" style="stroke: #000000; stroke-width: 0.8"/>
      </defs>
      <g>
       <use xlink:href="#m2fa05e4320" x="73.794876" y="257.56" style="stroke: #000000; stroke-width: 0.8"/>
      </g>
     </g>
     <g id="text_1">
      <!-- 1 -->
      <g transform="translate(70.613626 272.158437) scale(0.1 -0.1)">
       <defs>
        <path id="DejaVuSans-31" d="M 794 531 
L 1825 531 
L 1825 4091 
L 703 3866 
L 703 4441 
L 1819 4666 
L 2450 4666 
L 2450 531 
L 3481 531 
L 3481 0 
L 794 0 
L 794 531 
z
" transform="scale(0.015625)"/>
       </defs>
       <use xlink:href="#DejaVuSans-31"/>
      </g>
     </g>
    </g>
    <g id="xtick_2">
     <g id="line2d_3">
      <path d="M 193.225074 257.56 
L 193.225074 36.9105 
" clip-path="url(#p37972332d8)" style="fill: none; stroke: #b0b0b0; stroke-opacity: 0.25; stroke-width: 0.8; stroke-linecap: square"/>
     </g>
     <g id="line2d_4">
      <g>
       <use xlink:href="#m2fa05e4320" x="193.225074" y="257.56" style="stroke: #000000; stroke-width: 0.8"/>
      </g>
     </g>
     <g id="text_2">
      <!-- 2 -->
      <g transform="translate(190.043824 272.158437) scale(0.1 -0.1)">
       <defs>
        <path id="DejaVuSans-32" d="M 1228 531 
L 3431 531 
L 3431 0 
L 469 0 
L 469 531 
Q 828 903 1448 1529 
Q 2069 2156 2228 2338 
Q 2531 2678 2651 2914 
Q 2772 3150 2772 3378 
Q 2772 3750 2511 3984 
Q 2250 4219 1831 4219 
Q 1534 4219 1204 4116 
Q 875 4013 500 3803 
L 500 4441 
Q 881 4594 1212 4672 
Q 1544 4750 1819 4750 
Q 2544 4750 2975 4387 
Q 3406 4025 3406 3419 
Q 3406 3131 3298 2873 
Q 3191 2616 2906 2266 
Q 2828 2175 2409 1742 
Q 1991 1309 1228 531 
z
" transform="scale(0.015625)"/>
       </defs>
       <use xlink:href="#DejaVuSans-32"/>
      </g>
     </g>
    </g>
    <g id="xtick_3">
     <g id="line2d_5">
      <path d="M 312.655272 257.56 
L 312.655272 36.9105 
" clip-path="url(#p37972332d8)" style="fill: none; stroke: #b0b0b0; stroke-opacity: 0.25; stroke-width: 0.8; stroke-linecap: square"/>
     </g>
     <g id="line2d_6">
      <g>
       <use xlink:href="#m2fa05e4320" x="312.655272" y="257.56" style="stroke: #000000; stroke-width: 0.8"/>
      </g>
     </g>
     <g id="text_3">
      <!-- 3 -->
      <g transform="translate(309.474022 272.158437) scale(0.1 -0.1)">
       <defs>
        <path id="DejaVuSans-33" d="M 2597 2516 
Q 3050 2419 3304 2112 
Q 3559 1806 3559 1356 
Q 3559 666 3084 287 
Q 2609 -91 1734 -91 
Q 1441 -91 1130 -33 
Q 819 25 488 141 
L 488 750 
Q 750 597 1062 519 
Q 1375 441 1716 441 
Q 2309 441 2620 675 
Q 2931 909 2931 1356 
Q 2931 1769 2642 2001 
Q 2353 2234 1838 2234 
L 1294 2234 
L 1294 2753 
L 1863 2753 
Q 2328 2753 2575 2939 
Q 2822 3125 2822 3475 
Q 2822 3834 2567 4026 
Q 2313 4219 1838 4219 
Q 1578 4219 1281 4162 
Q 984 4106 628 3988 
L 628 4550 
Q 988 4650 1302 4700 
Q 1616 4750 1894 4750 
Q 2613 4750 3031 4423 
Q 3450 4097 3450 3541 
Q 3450 3153 3228 2886 
Q 3006 2619 2597 2516 
z
" transform="scale(0.015625)"/>
       </defs>
       <use xlink:href="#DejaVuSans-33"/>
      </g>
     </g>
    </g>
    <g id="xtick_4">
     <g id="line2d_7">
      <path d="M 432.08547 257.56 
L 432.08547 36.9105 
" clip-path="url(#p37972332d8)" style="fill: none; stroke: #b0b0b0; stroke-opacity: 0.25; stroke-width: 0.8; stroke-linecap: square"/>
     </g>
     <g id="line2d_8">
      <g>
       <use xlink:href="#m2fa05e4320" x="432.08547" y="257.56" style="stroke: #000000; stroke-width: 0.8"/>
      </g>
     </g>
     <g id="text_4">
      <!-- 4 -->
      <g transform="translate(428.90422 272.158437) scale(0.1 -0.1)">
       <defs>
        <path id="DejaVuSans-34" d="M 2419 4116 
L 825 1625 
L 2419 1625 
L 2419 4116 
z
M 2253 4666 
L 3047 4666 
L 3047 1625 
L 3713 1625 
L 3713 1100 
L 3047 1100 
L 3047 0 
L 2419 0 
L 2419 1100 
L 313 1100 
L 313 1709 
L 2253 4666 
z
" transform="scale(0.015625)"/>
       </defs>
       <use xlink:href="#DejaVuSans-34"/>
      </g>
     </g>
    </g>
    <g id="text_5">
     <!-- m   (degree $16m$, $m$ blocks of eight local factors) -->
     <g transform="translate(130.540173 285.838125) scale(0.1 -0.1)">
      <defs>
       <path id="DejaVuSans-6d" d="M 3328 2828 
Q 3544 3216 3844 3400 
Q 4144 3584 4550 3584 
Q 5097 3584 5394 3201 
Q 5691 2819 5691 2113 
L 5691 0 
L 5113 0 
L 5113 2094 
Q 5113 2597 4934 2840 
Q 4756 3084 4391 3084 
Q 3944 3084 3684 2787 
Q 3425 2491 3425 1978 
L 3425 0 
L 2847 0 
L 2847 2094 
Q 2847 2600 2669 2842 
Q 2491 3084 2119 3084 
Q 1678 3084 1418 2786 
Q 1159 2488 1159 1978 
L 1159 0 
L 581 0 
L 581 3500 
L 1159 3500 
L 1159 2956 
Q 1356 3278 1631 3431 
Q 1906 3584 2284 3584 
Q 2666 3584 2933 3390 
Q 3200 3197 3328 2828 
z
" transform="scale(0.015625)"/>
       <path id="DejaVuSans-20" transform="scale(0.015625)"/>
       <path id="DejaVuSans-28" d="M 1984 4856 
Q 1566 4138 1362 3434 
Q 1159 2731 1159 2009 
Q 1159 1288 1364 580 
Q 1569 -128 1984 -844 
L 1484 -844 
Q 1016 -109 783 600 
Q 550 1309 550 2009 
Q 550 2706 781 3412 
Q 1013 4119 1484 4856 
L 1984 4856 
z
" transform="scale(0.015625)"/>
       <path id="DejaVuSans-64" d="M 2906 2969 
L 2906 4863 
L 3481 4863 
L 3481 0 
L 2906 0 
L 2906 525 
Q 2725 213 2448 61 
Q 2172 -91 1784 -91 
Q 1150 -91 751 415 
Q 353 922 353 1747 
Q 353 2572 751 3078 
Q 1150 3584 1784 3584 
Q 2172 3584 2448 3432 
Q 2725 3281 2906 2969 
z
M 947 1747 
Q 947 1113 1208 752 
Q 1469 391 1925 391 
Q 2381 391 2643 752 
Q 2906 1113 2906 1747 
Q 2906 2381 2643 2742 
Q 2381 3103 1925 3103 
Q 1469 3103 1208 2742 
Q 947 2381 947 1747 
z
" transform="scale(0.015625)"/>
       <path id="DejaVuSans-65" d="M 3597 1894 
L 3597 1613 
L 953 1613 
Q 991 1019 1311 708 
Q 1631 397 2203 397 
Q 2534 397 2845 478 
Q 3156 559 3463 722 
L 3463 178 
Q 3153 47 2828 -22 
Q 2503 -91 2169 -91 
Q 1331 -91 842 396 
Q 353 884 353 1716 
Q 353 2575 817 3079 
Q 1281 3584 2069 3584 
Q 2775 3584 3186 3129 
Q 3597 2675 3597 1894 
z
M 3022 2063 
Q 3016 2534 2758 2815 
Q 2500 3097 2075 3097 
Q 1594 3097 1305 2825 
Q 1016 2553 972 2059 
L 3022 2063 
z
" transform="scale(0.015625)"/>
       <path id="DejaVuSans-67" d="M 2906 1791 
Q 2906 2416 2648 2759 
Q 2391 3103 1925 3103 
Q 1463 3103 1205 2759 
Q 947 2416 947 1791 
Q 947 1169 1205 825 
Q 1463 481 1925 481 
Q 2391 481 2648 825 
Q 2906 1169 2906 1791 
z
M 3481 434 
Q 3481 -459 3084 -895 
Q 2688 -1331 1869 -1331 
Q 1566 -1331 1297 -1286 
Q 1028 -1241 775 -1147 
L 775 -588 
Q 1028 -725 1275 -790 
Q 1522 -856 1778 -856 
Q 2344 -856 2625 -561 
Q 2906 -266 2906 331 
L 2906 616 
Q 2728 306 2450 153 
Q 2172 0 1784 0 
Q 1141 0 747 490 
Q 353 981 353 1791 
Q 353 2603 747 3093 
Q 1141 3584 1784 3584 
Q 2172 3584 2450 3431 
Q 2728 3278 2906 2969 
L 2906 3500 
L 3481 3500 
L 3481 434 
z
" transform="scale(0.015625)"/>
       <path id="DejaVuSans-72" d="M 2631 2963 
Q 2534 3019 2420 3045 
Q 2306 3072 2169 3072 
Q 1681 3072 1420 2755 
Q 1159 2438 1159 1844 
L 1159 0 
L 581 0 
L 581 3500 
L 1159 3500 
L 1159 2956 
Q 1341 3275 1631 3429 
Q 1922 3584 2338 3584 
Q 2397 3584 2469 3576 
Q 2541 3569 2628 3553 
L 2631 2963 
z
" transform="scale(0.015625)"/>
       <path id="DejaVuSans-36" d="M 2113 2584 
Q 1688 2584 1439 2293 
Q 1191 2003 1191 1497 
Q 1191 994 1439 701 
Q 1688 409 2113 409 
Q 2538 409 2786 701 
Q 3034 994 3034 1497 
Q 3034 2003 2786 2293 
Q 2538 2584 2113 2584 
z
M 3366 4563 
L 3366 3988 
Q 3128 4100 2886 4159 
Q 2644 4219 2406 4219 
Q 1781 4219 1451 3797 
Q 1122 3375 1075 2522 
Q 1259 2794 1537 2939 
Q 1816 3084 2150 3084 
Q 2853 3084 3261 2657 
Q 3669 2231 3669 1497 
Q 3669 778 3244 343 
Q 2819 -91 2113 -91 
Q 1303 -91 875 529 
Q 447 1150 447 2328 
Q 447 3434 972 4092 
Q 1497 4750 2381 4750 
Q 2619 4750 2861 4703 
Q 3103 4656 3366 4563 
z
" transform="scale(0.015625)"/>
       <path id="DejaVuSans-Oblique-6d" d="M 5747 2113 
L 5338 0 
L 4763 0 
L 5166 2094 
Q 5191 2228 5203 2325 
Q 5216 2422 5216 2491 
Q 5216 2772 5059 2928 
Q 4903 3084 4622 3084 
Q 4203 3084 3875 2770 
Q 3547 2456 3450 1953 
L 3066 0 
L 2491 0 
L 2900 2094 
Q 2925 2209 2937 2307 
Q 2950 2406 2950 2484 
Q 2950 2769 2794 2926 
Q 2638 3084 2363 3084 
Q 1938 3084 1609 2770 
Q 1281 2456 1184 1953 
L 800 0 
L 225 0 
L 909 3500 
L 1484 3500 
L 1375 2956 
Q 1609 3263 1923 3423 
Q 2238 3584 2597 3584 
Q 2978 3584 3223 3384 
Q 3469 3184 3519 2828 
Q 3781 3197 4126 3390 
Q 4472 3584 4856 3584 
Q 5306 3584 5551 3325 
Q 5797 3066 5797 2591 
Q 5797 2488 5784 2364 
Q 5772 2241 5747 2113 
z
" transform="scale(0.015625)"/>
       <path id="DejaVuSans-2c" d="M 750 794 
L 1409 794 
L 1409 256 
L 897 -744 
L 494 -744 
L 750 256 
L 750 794 
z
" transform="scale(0.015625)"/>
       <path id="DejaVuSans-62" d="M 3116 1747 
Q 3116 2381 2855 2742 
Q 2594 3103 2138 3103 
Q 1681 3103 1420 2742 
Q 1159 2381 1159 1747 
Q 1159 1113 1420 752 
Q 1681 391 2138 391 
Q 2594 391 2855 752 
Q 3116 1113 3116 1747 
z
M 1159 2969 
Q 1341 3281 1617 3432 
Q 1894 3584 2278 3584 
Q 2916 3584 3314 3078 
Q 3713 2572 3713 1747 
Q 3713 922 3314 415 
Q 2916 -91 2278 -91 
Q 1894 -91 1617 61 
Q 1341 213 1159 525 
L 1159 0 
L 581 0 
L 581 4863 
L 1159 4863 
L 1159 2969 
z
" transform="scale(0.015625)"/>
       <path id="DejaVuSans-6c" d="M 603 4863 
L 1178 4863 
L 1178 0 
L 603 0 
L 603 4863 
z
" transform="scale(0.015625)"/>
       <path id="DejaVuSans-6f" d="M 1959 3097 
Q 1497 3097 1228 2736 
Q 959 2375 959 1747 
Q 959 1119 1226 758 
Q 1494 397 1959 397 
Q 2419 397 2687 759 
Q 2956 1122 2956 1747 
Q 2956 2369 2687 2733 
Q 2419 3097 1959 3097 
z
M 1959 3584 
Q 2709 3584 3137 3096 
Q 3566 2609 3566 1747 
Q 3566 888 3137 398 
Q 2709 -91 1959 -91 
Q 1206 -91 779 398 
Q 353 888 353 1747 
Q 353 2609 779 3096 
Q 1206 3584 1959 3584 
z
" transform="scale(0.015625)"/>
       <path id="DejaVuSans-63" d="M 3122 3366 
L 3122 2828 
Q 2878 2963 2633 3030 
Q 2388 3097 2138 3097 
Q 1578 3097 1268 2742 
Q 959 2388 959 1747 
Q 959 1106 1268 751 
Q 1578 397 2138 397 
Q 2388 397 2633 464 
Q 2878 531 3122 666 
L 3122 134 
Q 2881 22 2623 -34 
Q 2366 -91 2075 -91 
Q 1284 -91 818 406 
Q 353 903 353 1747 
Q 353 2603 823 3093 
Q 1294 3584 2113 3584 
Q 2378 3584 2631 3529 
Q 2884 3475 3122 3366 
z
" transform="scale(0.015625)"/>
       <path id="DejaVuSans-6b" d="M 581 4863 
L 1159 4863 
L 1159 1991 
L 2875 3500 
L 3609 3500 
L 1753 1863 
L 3688 0 
L 2938 0 
L 1159 1709 
L 1159 0 
L 581 0 
L 581 4863 
z
" transform="scale(0.015625)"/>
       <path id="DejaVuSans-73" d="M 2834 3397 
L 2834 2853 
Q 2591 2978 2328 3040 
Q 2066 3103 1784 3103 
Q 1356 3103 1142 2972 
Q 928 2841 928 2578 
Q 928 2378 1081 2264 
Q 1234 2150 1697 2047 
L 1894 2003 
Q 2506 1872 2764 1633 
Q 3022 1394 3022 966 
Q 3022 478 2636 193 
Q 2250 -91 1575 -91 
Q 1294 -91 989 -36 
Q 684 19 347 128 
L 347 722 
Q 666 556 975 473 
Q 1284 391 1588 391 
Q 1994 391 2212 530 
Q 2431 669 2431 922 
Q 2431 1156 2273 1281 
Q 2116 1406 1581 1522 
L 1381 1569 
Q 847 1681 609 1914 
Q 372 2147 372 2553 
Q 372 3047 722 3315 
Q 1072 3584 1716 3584 
Q 2034 3584 2315 3537 
Q 2597 3491 2834 3397 
z
" transform="scale(0.015625)"/>
       <path id="DejaVuSans-66" d="M 2375 4863 
L 2375 4384 
L 1825 4384 
Q 1516 4384 1395 4259 
Q 1275 4134 1275 3809 
L 1275 3500 
L 2222 3500 
L 2222 3053 
L 1275 3053 
L 1275 0 
L 697 0 
L 697 3053 
L 147 3053 
L 147 3500 
L 697 3500 
L 697 3744 
Q 697 4328 969 4595 
Q 1241 4863 1831 4863 
L 2375 4863 
z
" transform="scale(0.015625)"/>
       <path id="DejaVuSans-69" d="M 603 3500 
L 1178 3500 
L 1178 0 
L 603 0 
L 603 3500 
z
M 603 4863 
L 1178 4863 
L 1178 4134 
L 603 4134 
L 603 4863 
z
" transform="scale(0.015625)"/>
       <path id="DejaVuSans-68" d="M 3513 2113 
L 3513 0 
L 2938 0 
L 2938 2094 
Q 2938 2591 2744 2837 
Q 2550 3084 2163 3084 
Q 1697 3084 1428 2787 
Q 1159 2491 1159 1978 
L 1159 0 
L 581 0 
L 581 4863 
L 1159 4863 
L 1159 2956 
Q 1366 3272 1645 3428 
Q 1925 3584 2291 3584 
Q 2894 3584 3203 3211 
Q 3513 2838 3513 2113 
z
" transform="scale(0.015625)"/>
       <path id="DejaVuSans-74" d="M 1172 4494 
L 1172 3500 
L 2356 3500 
L 2356 3053 
L 1172 3053 
L 1172 1153 
Q 1172 725 1289 603 
Q 1406 481 1766 481 
L 2356 481 
L 2356 0 
L 1766 0 
Q 1100 0 847 248 
Q 594 497 594 1153 
L 594 3053 
L 172 3053 
L 172 3500 
L 594 3500 
L 594 4494 
L 1172 4494 
z
" transform="scale(0.015625)"/>
       <path id="DejaVuSans-61" d="M 2194 1759 
Q 1497 1759 1228 1600 
Q 959 1441 959 1056 
Q 959 750 1161 570 
Q 1363 391 1709 391 
Q 2188 391 2477 730 
Q 2766 1069 2766 1631 
L 2766 1759 
L 2194 1759 
z
M 3341 1997 
L 3341 0 
L 2766 0 
L 2766 531 
Q 2569 213 2275 61 
Q 1981 -91 1556 -91 
Q 1019 -91 701 211 
Q 384 513 384 1019 
Q 384 1609 779 1909 
Q 1175 2209 1959 2209 
L 2766 2209 
L 2766 2266 
Q 2766 2663 2505 2880 
Q 2244 3097 1772 3097 
Q 1472 3097 1187 3025 
Q 903 2953 641 2809 
L 641 3341 
Q 956 3463 1253 3523 
Q 1550 3584 1831 3584 
Q 2591 3584 2966 3190 
Q 3341 2797 3341 1997 
z
" transform="scale(0.015625)"/>
       <path id="DejaVuSans-29" d="M 513 4856 
L 1013 4856 
Q 1481 4119 1714 3412 
Q 1947 2706 1947 2009 
Q 1947 1309 1714 600 
Q 1481 -109 1013 -844 
L 513 -844 
Q 928 -128 1133 580 
Q 1338 1288 1338 2009 
Q 1338 2731 1133 3434 
Q 928 4138 513 4856 
z
" transform="scale(0.015625)"/>
      </defs>
      <use xlink:href="#DejaVuSans-6d" transform="translate(0 0.015625)"/>
      <use xlink:href="#DejaVuSans-20" transform="translate(97.412109 0.015625)"/>
      <use xlink:href="#DejaVuSans-20" transform="translate(129.199219 0.015625)"/>
      <use xlink:href="#DejaVuSans-20" transform="translate(160.986328 0.015625)"/>
      <use xlink:href="#DejaVuSans-28" transform="translate(192.773438 0.015625)"/>
      <use xlink:href="#DejaVuSans-64" transform="translate(231.787109 0.015625)"/>
      <use xlink:href="#DejaVuSans-65" transform="translate(295.263672 0.015625)"/>
      <use xlink:href="#DejaVuSans-67" transform="translate(356.787109 0.015625)"/>
      <use xlink:href="#DejaVuSans-72" transform="translate(420.263672 0.015625)"/>
      <use xlink:href="#DejaVuSans-65" transform="translate(461.376953 0.015625)"/>
      <use xlink:href="#DejaVuSans-65" transform="translate(522.900391 0.015625)"/>
      <use xlink:href="#DejaVuSans-20" transform="translate(584.423828 0.015625)"/>
      <use xlink:href="#DejaVuSans-31" transform="translate(616.210938 0.015625)"/>
      <use xlink:href="#DejaVuSans-36" transform="translate(679.833984 0.015625)"/>
      <use xlink:href="#DejaVuSans-Oblique-6d" transform="translate(743.457031 0.015625)"/>
      <use xlink:href="#DejaVuSans-2c" transform="translate(840.869141 0.015625)"/>
      <use xlink:href="#DejaVuSans-20" transform="translate(872.65625 0.015625)"/>
      <use xlink:href="#DejaVuSans-Oblique-6d" transform="translate(904.443359 0.015625)"/>
      <use xlink:href="#DejaVuSans-20" transform="translate(1001.855469 0.015625)"/>
      <use xlink:href="#DejaVuSans-62" transform="translate(1033.642578 0.015625)"/>
      <use xlink:href="#DejaVuSans-6c" transform="translate(1097.119141 0.015625)"/>
      <use xlink:href="#DejaVuSans-6f" transform="translate(1124.902344 0.015625)"/>
      <use xlink:href="#DejaVuSans-63" transform="translate(1186.083984 0.015625)"/>
      <use xlink:href="#DejaVuSans-6b" transform="translate(1241.064453 0.015625)"/>
      <use xlink:href="#DejaVuSans-73" transform="translate(1298.974609 0.015625)"/>
      <use xlink:href="#DejaVuSans-20" transform="translate(1351.074219 0.015625)"/>
      <use xlink:href="#DejaVuSans-6f" transform="translate(1382.861328 0.015625)"/>
      <use xlink:href="#DejaVuSans-66" transform="translate(1444.042969 0.015625)"/>
      <use xlink:href="#DejaVuSans-20" transform="translate(1479.248047 0.015625)"/>
      <use xlink:href="#DejaVuSans-65" transform="translate(1511.035156 0.015625)"/>
      <use xlink:href="#DejaVuSans-69" transform="translate(1572.558594 0.015625)"/>
      <use xlink:href="#DejaVuSans-67" transform="translate(1600.341797 0.015625)"/>
      <use xlink:href="#DejaVuSans-68" transform="translate(1663.818359 0.015625)"/>
      <use xlink:href="#DejaVuSans-74" transform="translate(1727.197266 0.015625)"/>
      <use xlink:href="#DejaVuSans-20" transform="translate(1766.40625 0.015625)"/>
      <use xlink:href="#DejaVuSans-6c" transform="translate(1798.193359 0.015625)"/>
      <use xlink:href="#DejaVuSans-6f" transform="translate(1825.976562 0.015625)"/>
      <use xlink:href="#DejaVuSans-63" transform="translate(1887.158203 0.015625)"/>
      <use xlink:href="#DejaVuSans-61" transform="translate(1942.138672 0.015625)"/>
      <use xlink:href="#DejaVuSans-6c" transform="translate(2003.417969 0.015625)"/>
      <use xlink:href="#DejaVuSans-20" transform="translate(2031.201172 0.015625)"/>
      <use xlink:href="#DejaVuSans-66" transform="translate(2062.988281 0.015625)"/>
      <use xlink:href="#DejaVuSans-61" transform="translate(2098.193359 0.015625)"/>
      <use xlink:href="#DejaVuSans-63" transform="translate(2159.472656 0.015625)"/>
      <use xlink:href="#DejaVuSans-74" transform="translate(2214.453125 0.015625)"/>
      <use xlink:href="#DejaVuSans-6f" transform="translate(2253.662109 0.015625)"/>
      <use xlink:href="#DejaVuSans-72" transform="translate(2314.84375 0.015625)"/>
      <use xlink:href="#DejaVuSans-73" transform="translate(2355.957031 0.015625)"/>
      <use xlink:href="#DejaVuSans-29" transform="translate(2408.056641 0.015625)"/>
     </g>
    </g>
   </g>
   <g id="matplotlib.axis_2">
    <g id="ytick_1">
     <g id="line2d_9">
      <path d="M 55.880346 224.619954 
L 450 224.619954 
" clip-path="url(#p37972332d8)" style="fill: none; stroke: #b0b0b0; stroke-opacity: 0.25; stroke-width: 0.8; stroke-linecap: square"/>
     </g>
     <g id="line2d_10">
      <defs>
       <path id="m9f810abd95" d="M 0 0 
L -3.5 0 
" style="stroke: #000000; stroke-width: 0.8"/>
      </defs>
      <g>
       <use xlink:href="#m9f810abd95" x="55.880346" y="224.619954" style="stroke: #000000; stroke-width: 0.8"/>
      </g>
     </g>
     <g id="text_6">
      <!-- $\mathdefault{10^{-3}}$ -->
      <g transform="translate(25.380346 228.419172) scale(0.1 -0.1)">
       <defs>
        <path id="DejaVuSans-30" d="M 2034 4250 
Q 1547 4250 1301 3770 
Q 1056 3291 1056 2328 
Q 1056 1369 1301 889 
Q 1547 409 2034 409 
Q 2525 409 2770 889 
Q 3016 1369 3016 2328 
Q 3016 3291 2770 3770 
Q 2525 4250 2034 4250 
z
M 2034 4750 
Q 2819 4750 3233 4129 
Q 3647 3509 3647 2328 
Q 3647 1150 3233 529 
Q 2819 -91 2034 -91 
Q 1250 -91 836 529 
Q 422 1150 422 2328 
Q 422 3509 836 4129 
Q 1250 4750 2034 4750 
z
" transform="scale(0.015625)"/>
        <path id="DejaVuSans-2212" d="M 678 2272 
L 4684 2272 
L 4684 1741 
L 678 1741 
L 678 2272 
z
" transform="scale(0.015625)"/>
       </defs>
       <use xlink:href="#DejaVuSans-31" transform="translate(0 0.765625)"/>
       <use xlink:href="#DejaVuSans-30" transform="translate(63.623047 0.765625)"/>
       <use xlink:href="#DejaVuSans-2212" transform="translate(128.203125 39.046875) scale(0.7)"/>
       <use xlink:href="#DejaVuSans-33" transform="translate(186.855469 39.046875) scale(0.7)"/>
      </g>
     </g>
    </g>
    <g id="ytick_2">
     <g id="line2d_11">
      <path d="M 55.880346 181.654699 
L 450 181.654699 
" clip-path="url(#p37972332d8)" style="fill: none; stroke: #b0b0b0; stroke-opacity: 0.25; stroke-width: 0.8; stroke-linecap: square"/>
     </g>
     <g id="line2d_12">
      <g>
       <use xlink:href="#m9f810abd95" x="55.880346" y="181.654699" style="stroke: #000000; stroke-width: 0.8"/>
      </g>
     </g>
     <g id="text_7">
      <!-- $\mathdefault{10^{-2}}$ -->
      <g transform="translate(25.380346 185.453918) scale(0.1 -0.1)">
       <use xlink:href="#DejaVuSans-31" transform="translate(0 0.765625)"/>
       <use xlink:href="#DejaVuSans-30" transform="translate(63.623047 0.765625)"/>
       <use xlink:href="#DejaVuSans-2212" transform="translate(128.203125 39.046875) scale(0.7)"/>
       <use xlink:href="#DejaVuSans-32" transform="translate(186.855469 39.046875) scale(0.7)"/>
      </g>
     </g>
    </g>
    <g id="ytick_3">
     <g id="line2d_13">
      <path d="M 55.880346 138.689444 
L 450 138.689444 
" clip-path="url(#p37972332d8)" style="fill: none; stroke: #b0b0b0; stroke-opacity: 0.25; stroke-width: 0.8; stroke-linecap: square"/>
     </g>
     <g id="line2d_14">
      <g>
       <use xlink:href="#m9f810abd95" x="55.880346" y="138.689444" style="stroke: #000000; stroke-width: 0.8"/>
      </g>
     </g>
     <g id="text_8">
      <!-- $\mathdefault{10^{-1}}$ -->
      <g transform="translate(25.380346 142.488663) scale(0.1 -0.1)">
       <use xlink:href="#DejaVuSans-31" transform="translate(0 0.684375)"/>
       <use xlink:href="#DejaVuSans-30" transform="translate(63.623047 0.684375)"/>
       <use xlink:href="#DejaVuSans-2212" transform="translate(128.203125 38.965625) scale(0.7)"/>
       <use xlink:href="#DejaVuSans-31" transform="translate(186.855469 38.965625) scale(0.7)"/>
      </g>
     </g>
    </g>
    <g id="ytick_4">
     <g id="line2d_15">
      <path d="M 55.880346 95.72419 
L 450 95.72419 
" clip-path="url(#p37972332d8)" style="fill: none; stroke: #b0b0b0; stroke-opacity: 0.25; stroke-width: 0.8; stroke-linecap: square"/>
     </g>
     <g id="line2d_16">
      <g>
       <use xlink:href="#m9f810abd95" x="55.880346" y="95.72419" style="stroke: #000000; stroke-width: 0.8"/>
      </g>
     </g>
     <g id="text_9">
      <!-- $\mathdefault{10^{0}}$ -->
      <g transform="translate(31.280346 99.523408) scale(0.1 -0.1)">
       <use xlink:href="#DejaVuSans-31" transform="translate(0 0.765625)"/>
       <use xlink:href="#DejaVuSans-30" transform="translate(63.623047 0.765625)"/>
       <use xlink:href="#DejaVuSans-30" transform="translate(128.203125 39.046875) scale(0.7)"/>
      </g>
     </g>
    </g>
    <g id="ytick_5">
     <g id="line2d_17">
      <path d="M 55.880346 52.758935 
L 450 52.758935 
" clip-path="url(#p37972332d8)" style="fill: none; stroke: #b0b0b0; stroke-opacity: 0.25; stroke-width: 0.8; stroke-linecap: square"/>
     </g>
     <g id="line2d_18">
      <g>
       <use xlink:href="#m9f810abd95" x="55.880346" y="52.758935" style="stroke: #000000; stroke-width: 0.8"/>
      </g>
     </g>
     <g id="text_10">
      <!-- $\mathdefault{10^{1}}$ -->
      <g transform="translate(31.280346 56.558154) scale(0.1 -0.1)">
       <use xlink:href="#DejaVuSans-31" transform="translate(0 0.684375)"/>
       <use xlink:href="#DejaVuSans-30" transform="translate(63.623047 0.684375)"/>
       <use xlink:href="#DejaVuSans-31" transform="translate(128.203125 38.965625) scale(0.7)"/>
      </g>
     </g>
    </g>
    <g id="ytick_6">
     <g id="line2d_19">
      <path d="M 55.880346 254.651378 
L 450 254.651378 
" clip-path="url(#p37972332d8)" style="fill: none; stroke: #b0b0b0; stroke-opacity: 0.25; stroke-width: 0.8; stroke-linecap: square"/>
     </g>
     <g id="line2d_20">
      <defs>
       <path id="m819e5ff5c4" d="M 0 0 
L -2 0 
" style="stroke: #000000; stroke-width: 0.6"/>
      </defs>
      <g>
       <use xlink:href="#m819e5ff5c4" x="55.880346" y="254.651378" style="stroke: #000000; stroke-width: 0.6"/>
      </g>
     </g>
    </g>
    <g id="ytick_7">
     <g id="line2d_21">
      <path d="M 55.880346 247.085572 
L 450 247.085572 
" clip-path="url(#p37972332d8)" style="fill: none; stroke: #b0b0b0; stroke-opacity: 0.25; stroke-width: 0.8; stroke-linecap: square"/>
     </g>
     <g id="line2d_22">
      <g>
       <use xlink:href="#m819e5ff5c4" x="55.880346" y="247.085572" style="stroke: #000000; stroke-width: 0.6"/>
      </g>
     </g>
    </g>
    <g id="ytick_8">
     <g id="line2d_23">
      <path d="M 55.880346 241.717547 
L 450 241.717547 
" clip-path="url(#p37972332d8)" style="fill: none; stroke: #b0b0b0; stroke-opacity: 0.25; stroke-width: 0.8; stroke-linecap: square"/>
     </g>
     <g id="line2d_24">
      <g>
       <use xlink:href="#m819e5ff5c4" x="55.880346" y="241.717547" style="stroke: #000000; stroke-width: 0.6"/>
      </g>
     </g>
    </g>
    <g id="ytick_9">
     <g id="line2d_25">
      <path d="M 55.880346 237.553784 
L 450 237.553784 
" clip-path="url(#p37972332d8)" style="fill: none; stroke: #b0b0b0; stroke-opacity: 0.25; stroke-width: 0.8; stroke-linecap: square"/>
     </g>
     <g id="line2d_26">
      <g>
       <use xlink:href="#m819e5ff5c4" x="55.880346" y="237.553784" style="stroke: #000000; stroke-width: 0.6"/>
      </g>
     </g>
    </g>
    <g id="ytick_10">
     <g id="line2d_27">
      <path d="M 55.880346 234.151742 
L 450 234.151742 
" clip-path="url(#p37972332d8)" style="fill: none; stroke: #b0b0b0; stroke-opacity: 0.25; stroke-width: 0.8; stroke-linecap: square"/>
     </g>
     <g id="line2d_28">
      <g>
       <use xlink:href="#m819e5ff5c4" x="55.880346" y="234.151742" style="stroke: #000000; stroke-width: 0.6"/>
      </g>
     </g>
    </g>
    <g id="ytick_11">
     <g id="line2d_29">
      <path d="M 55.880346 231.275356 
L 450 231.275356 
" clip-path="url(#p37972332d8)" style="fill: none; stroke: #b0b0b0; stroke-opacity: 0.25; stroke-width: 0.8; stroke-linecap: square"/>
     </g>
     <g id="line2d_30">
      <g>
       <use xlink:href="#m819e5ff5c4" x="55.880346" y="231.275356" style="stroke: #000000; stroke-width: 0.6"/>
      </g>
     </g>
    </g>
    <g id="ytick_12">
     <g id="line2d_31">
      <path d="M 55.880346 228.783717 
L 450 228.783717 
" clip-path="url(#p37972332d8)" style="fill: none; stroke: #b0b0b0; stroke-opacity: 0.25; stroke-width: 0.8; stroke-linecap: square"/>
     </g>
     <g id="line2d_32">
      <g>
       <use xlink:href="#m819e5ff5c4" x="55.880346" y="228.783717" style="stroke: #000000; stroke-width: 0.6"/>
      </g>
     </g>
    </g>
    <g id="ytick_13">
     <g id="line2d_33">
      <path d="M 55.880346 226.585936 
L 450 226.585936 
" clip-path="url(#p37972332d8)" style="fill: none; stroke: #b0b0b0; stroke-opacity: 0.25; stroke-width: 0.8; stroke-linecap: square"/>
     </g>
     <g id="line2d_34">
      <g>
       <use xlink:href="#m819e5ff5c4" x="55.880346" y="226.585936" style="stroke: #000000; stroke-width: 0.6"/>
      </g>
     </g>
    </g>
    <g id="ytick_14">
     <g id="line2d_35">
      <path d="M 55.880346 211.686123 
L 450 211.686123 
" clip-path="url(#p37972332d8)" style="fill: none; stroke: #b0b0b0; stroke-opacity: 0.25; stroke-width: 0.8; stroke-linecap: square"/>
     </g>
     <g id="line2d_36">
      <g>
       <use xlink:href="#m819e5ff5c4" x="55.880346" y="211.686123" style="stroke: #000000; stroke-width: 0.6"/>
      </g>
     </g>
    </g>
    <g id="ytick_15">
     <g id="line2d_37">
      <path d="M 55.880346 204.120317 
L 450 204.120317 
" clip-path="url(#p37972332d8)" style="fill: none; stroke: #b0b0b0; stroke-opacity: 0.25; stroke-width: 0.8; stroke-linecap: square"/>
     </g>
     <g id="line2d_38">
      <g>
       <use xlink:href="#m819e5ff5c4" x="55.880346" y="204.120317" style="stroke: #000000; stroke-width: 0.6"/>
      </g>
     </g>
    </g>
    <g id="ytick_16">
     <g id="line2d_39">
      <path d="M 55.880346 198.752293 
L 450 198.752293 
" clip-path="url(#p37972332d8)" style="fill: none; stroke: #b0b0b0; stroke-opacity: 0.25; stroke-width: 0.8; stroke-linecap: square"/>
     </g>
     <g id="line2d_40">
      <g>
       <use xlink:href="#m819e5ff5c4" x="55.880346" y="198.752293" style="stroke: #000000; stroke-width: 0.6"/>
      </g>
     </g>
    </g>
    <g id="ytick_17">
     <g id="line2d_41">
      <path d="M 55.880346 194.588529 
L 450 194.588529 
" clip-path="url(#p37972332d8)" style="fill: none; stroke: #b0b0b0; stroke-opacity: 0.25; stroke-width: 0.8; stroke-linecap: square"/>
     </g>
     <g id="line2d_42">
      <g>
       <use xlink:href="#m819e5ff5c4" x="55.880346" y="194.588529" style="stroke: #000000; stroke-width: 0.6"/>
      </g>
     </g>
    </g>
    <g id="ytick_18">
     <g id="line2d_43">
      <path d="M 55.880346 191.186487 
L 450 191.186487 
" clip-path="url(#p37972332d8)" style="fill: none; stroke: #b0b0b0; stroke-opacity: 0.25; stroke-width: 0.8; stroke-linecap: square"/>
     </g>
     <g id="line2d_44">
      <g>
       <use xlink:href="#m819e5ff5c4" x="55.880346" y="191.186487" style="stroke: #000000; stroke-width: 0.6"/>
      </g>
     </g>
    </g>
    <g id="ytick_19">
     <g id="line2d_45">
      <path d="M 55.880346 188.310101 
L 450 188.310101 
" clip-path="url(#p37972332d8)" style="fill: none; stroke: #b0b0b0; stroke-opacity: 0.25; stroke-width: 0.8; stroke-linecap: square"/>
     </g>
     <g id="line2d_46">
      <g>
       <use xlink:href="#m819e5ff5c4" x="55.880346" y="188.310101" style="stroke: #000000; stroke-width: 0.6"/>
      </g>
     </g>
    </g>
    <g id="ytick_20">
     <g id="line2d_47">
      <path d="M 55.880346 185.818462 
L 450 185.818462 
" clip-path="url(#p37972332d8)" style="fill: none; stroke: #b0b0b0; stroke-opacity: 0.25; stroke-width: 0.8; stroke-linecap: square"/>
     </g>
     <g id="line2d_48">
      <g>
       <use xlink:href="#m819e5ff5c4" x="55.880346" y="185.818462" style="stroke: #000000; stroke-width: 0.6"/>
      </g>
     </g>
    </g>
    <g id="ytick_21">
     <g id="line2d_49">
      <path d="M 55.880346 183.620681 
L 450 183.620681 
" clip-path="url(#p37972332d8)" style="fill: none; stroke: #b0b0b0; stroke-opacity: 0.25; stroke-width: 0.8; stroke-linecap: square"/>
     </g>
     <g id="line2d_50">
      <g>
       <use xlink:href="#m819e5ff5c4" x="55.880346" y="183.620681" style="stroke: #000000; stroke-width: 0.6"/>
      </g>
     </g>
    </g>
    <g id="ytick_22">
     <g id="line2d_51">
      <path d="M 55.880346 168.720869 
L 450 168.720869 
" clip-path="url(#p37972332d8)" style="fill: none; stroke: #b0b0b0; stroke-opacity: 0.25; stroke-width: 0.8; stroke-linecap: square"/>
     </g>
     <g id="line2d_52">
      <g>
       <use xlink:href="#m819e5ff5c4" x="55.880346" y="168.720869" style="stroke: #000000; stroke-width: 0.6"/>
      </g>
     </g>
    </g>
    <g id="ytick_23">
     <g id="line2d_53">
      <path d="M 55.880346 161.155063 
L 450 161.155063 
" clip-path="url(#p37972332d8)" style="fill: none; stroke: #b0b0b0; stroke-opacity: 0.25; stroke-width: 0.8; stroke-linecap: square"/>
     </g>
     <g id="line2d_54">
      <g>
       <use xlink:href="#m819e5ff5c4" x="55.880346" y="161.155063" style="stroke: #000000; stroke-width: 0.6"/>
      </g>
     </g>
    </g>
    <g id="ytick_24">
     <g id="line2d_55">
      <path d="M 55.880346 155.787038 
L 450 155.787038 
" clip-path="url(#p37972332d8)" style="fill: none; stroke: #b0b0b0; stroke-opacity: 0.25; stroke-width: 0.8; stroke-linecap: square"/>
     </g>
     <g id="line2d_56">
      <g>
       <use xlink:href="#m819e5ff5c4" x="55.880346" y="155.787038" style="stroke: #000000; stroke-width: 0.6"/>
      </g>
     </g>
    </g>
    <g id="ytick_25">
     <g id="line2d_57">
      <path d="M 55.880346 151.623275 
L 450 151.623275 
" clip-path="url(#p37972332d8)" style="fill: none; stroke: #b0b0b0; stroke-opacity: 0.25; stroke-width: 0.8; stroke-linecap: square"/>
     </g>
     <g id="line2d_58">
      <g>
       <use xlink:href="#m819e5ff5c4" x="55.880346" y="151.623275" style="stroke: #000000; stroke-width: 0.6"/>
      </g>
     </g>
    </g>
    <g id="ytick_26">
     <g id="line2d_59">
      <path d="M 55.880346 148.221232 
L 450 148.221232 
" clip-path="url(#p37972332d8)" style="fill: none; stroke: #b0b0b0; stroke-opacity: 0.25; stroke-width: 0.8; stroke-linecap: square"/>
     </g>
     <g id="line2d_60">
      <g>
       <use xlink:href="#m819e5ff5c4" x="55.880346" y="148.221232" style="stroke: #000000; stroke-width: 0.6"/>
      </g>
     </g>
    </g>
    <g id="ytick_27">
     <g id="line2d_61">
      <path d="M 55.880346 145.344846 
L 450 145.344846 
" clip-path="url(#p37972332d8)" style="fill: none; stroke: #b0b0b0; stroke-opacity: 0.25; stroke-width: 0.8; stroke-linecap: square"/>
     </g>
     <g id="line2d_62">
      <g>
       <use xlink:href="#m819e5ff5c4" x="55.880346" y="145.344846" style="stroke: #000000; stroke-width: 0.6"/>
      </g>
     </g>
    </g>
    <g id="ytick_28">
     <g id="line2d_63">
      <path d="M 55.880346 142.853208 
L 450 142.853208 
" clip-path="url(#p37972332d8)" style="fill: none; stroke: #b0b0b0; stroke-opacity: 0.25; stroke-width: 0.8; stroke-linecap: square"/>
     </g>
     <g id="line2d_64">
      <g>
       <use xlink:href="#m819e5ff5c4" x="55.880346" y="142.853208" style="stroke: #000000; stroke-width: 0.6"/>
      </g>
     </g>
    </g>
    <g id="ytick_29">
     <g id="line2d_65">
      <path d="M 55.880346 140.655427 
L 450 140.655427 
" clip-path="url(#p37972332d8)" style="fill: none; stroke: #b0b0b0; stroke-opacity: 0.25; stroke-width: 0.8; stroke-linecap: square"/>
     </g>
     <g id="line2d_66">
      <g>
       <use xlink:href="#m819e5ff5c4" x="55.880346" y="140.655427" style="stroke: #000000; stroke-width: 0.6"/>
      </g>
     </g>
    </g>
    <g id="ytick_30">
     <g id="line2d_67">
      <path d="M 55.880346 125.755614 
L 450 125.755614 
" clip-path="url(#p37972332d8)" style="fill: none; stroke: #b0b0b0; stroke-opacity: 0.25; stroke-width: 0.8; stroke-linecap: square"/>
     </g>
     <g id="line2d_68">
      <g>
       <use xlink:href="#m819e5ff5c4" x="55.880346" y="125.755614" style="stroke: #000000; stroke-width: 0.6"/>
      </g>
     </g>
    </g>
    <g id="ytick_31">
     <g id="line2d_69">
      <path d="M 55.880346 118.189808 
L 450 118.189808 
" clip-path="url(#p37972332d8)" style="fill: none; stroke: #b0b0b0; stroke-opacity: 0.25; stroke-width: 0.8; stroke-linecap: square"/>
     </g>
     <g id="line2d_70">
      <g>
       <use xlink:href="#m819e5ff5c4" x="55.880346" y="118.189808" style="stroke: #000000; stroke-width: 0.6"/>
      </g>
     </g>
    </g>
    <g id="ytick_32">
     <g id="line2d_71">
      <path d="M 55.880346 112.821783 
L 450 112.821783 
" clip-path="url(#p37972332d8)" style="fill: none; stroke: #b0b0b0; stroke-opacity: 0.25; stroke-width: 0.8; stroke-linecap: square"/>
     </g>
     <g id="line2d_72">
      <g>
       <use xlink:href="#m819e5ff5c4" x="55.880346" y="112.821783" style="stroke: #000000; stroke-width: 0.6"/>
      </g>
     </g>
    </g>
    <g id="ytick_33">
     <g id="line2d_73">
      <path d="M 55.880346 108.65802 
L 450 108.65802 
" clip-path="url(#p37972332d8)" style="fill: none; stroke: #b0b0b0; stroke-opacity: 0.25; stroke-width: 0.8; stroke-linecap: square"/>
     </g>
     <g id="line2d_74">
      <g>
       <use xlink:href="#m819e5ff5c4" x="55.880346" y="108.65802" style="stroke: #000000; stroke-width: 0.6"/>
      </g>
     </g>
    </g>
    <g id="ytick_34">
     <g id="line2d_75">
      <path d="M 55.880346 105.255978 
L 450 105.255978 
" clip-path="url(#p37972332d8)" style="fill: none; stroke: #b0b0b0; stroke-opacity: 0.25; stroke-width: 0.8; stroke-linecap: square"/>
     </g>
     <g id="line2d_76">
      <g>
       <use xlink:href="#m819e5ff5c4" x="55.880346" y="105.255978" style="stroke: #000000; stroke-width: 0.6"/>
      </g>
     </g>
    </g>
    <g id="ytick_35">
     <g id="line2d_77">
      <path d="M 55.880346 102.379592 
L 450 102.379592 
" clip-path="url(#p37972332d8)" style="fill: none; stroke: #b0b0b0; stroke-opacity: 0.25; stroke-width: 0.8; stroke-linecap: square"/>
     </g>
     <g id="line2d_78">
      <g>
       <use xlink:href="#m819e5ff5c4" x="55.880346" y="102.379592" style="stroke: #000000; stroke-width: 0.6"/>
      </g>
     </g>
    </g>
    <g id="ytick_36">
     <g id="line2d_79">
      <path d="M 55.880346 99.887953 
L 450 99.887953 
" clip-path="url(#p37972332d8)" style="fill: none; stroke: #b0b0b0; stroke-opacity: 0.25; stroke-width: 0.8; stroke-linecap: square"/>
     </g>
     <g id="line2d_80">
      <g>
       <use xlink:href="#m819e5ff5c4" x="55.880346" y="99.887953" style="stroke: #000000; stroke-width: 0.6"/>
      </g>
     </g>
    </g>
    <g id="ytick_37">
     <g id="line2d_81">
      <path d="M 55.880346 97.690172 
L 450 97.690172 
" clip-path="url(#p37972332d8)" style="fill: none; stroke: #b0b0b0; stroke-opacity: 0.25; stroke-width: 0.8; stroke-linecap: square"/>
     </g>
     <g id="line2d_82">
      <g>
       <use xlink:href="#m819e5ff5c4" x="55.880346" y="97.690172" style="stroke: #000000; stroke-width: 0.6"/>
      </g>
     </g>
    </g>
    <g id="ytick_38">
     <g id="line2d_83">
      <path d="M 55.880346 82.790359 
L 450 82.790359 
" clip-path="url(#p37972332d8)" style="fill: none; stroke: #b0b0b0; stroke-opacity: 0.25; stroke-width: 0.8; stroke-linecap: square"/>
     </g>
     <g id="line2d_84">
      <g>
       <use xlink:href="#m819e5ff5c4" x="55.880346" y="82.790359" style="stroke: #000000; stroke-width: 0.6"/>
      </g>
     </g>
    </g>
    <g id="ytick_39">
     <g id="line2d_85">
      <path d="M 55.880346 75.224553 
L 450 75.224553 
" clip-path="url(#p37972332d8)" style="fill: none; stroke: #b0b0b0; stroke-opacity: 0.25; stroke-width: 0.8; stroke-linecap: square"/>
     </g>
     <g id="line2d_86">
      <g>
       <use xlink:href="#m819e5ff5c4" x="55.880346" y="75.224553" style="stroke: #000000; stroke-width: 0.6"/>
      </g>
     </g>
    </g>
    <g id="ytick_40">
     <g id="line2d_87">
      <path d="M 55.880346 69.856529 
L 450 69.856529 
" clip-path="url(#p37972332d8)" style="fill: none; stroke: #b0b0b0; stroke-opacity: 0.25; stroke-width: 0.8; stroke-linecap: square"/>
     </g>
     <g id="line2d_88">
      <g>
       <use xlink:href="#m819e5ff5c4" x="55.880346" y="69.856529" style="stroke: #000000; stroke-width: 0.6"/>
      </g>
     </g>
    </g>
    <g id="ytick_41">
     <g id="line2d_89">
      <path d="M 55.880346 65.692765 
L 450 65.692765 
" clip-path="url(#p37972332d8)" style="fill: none; stroke: #b0b0b0; stroke-opacity: 0.25; stroke-width: 0.8; stroke-linecap: square"/>
     </g>
     <g id="line2d_90">
      <g>
       <use xlink:href="#m819e5ff5c4" x="55.880346" y="65.692765" style="stroke: #000000; stroke-width: 0.6"/>
      </g>
     </g>
    </g>
    <g id="ytick_42">
     <g id="line2d_91">
      <path d="M 55.880346 62.290723 
L 450 62.290723 
" clip-path="url(#p37972332d8)" style="fill: none; stroke: #b0b0b0; stroke-opacity: 0.25; stroke-width: 0.8; stroke-linecap: square"/>
     </g>
     <g id="line2d_92">
      <g>
       <use xlink:href="#m819e5ff5c4" x="55.880346" y="62.290723" style="stroke: #000000; stroke-width: 0.6"/>
      </g>
     </g>
    </g>
    <g id="ytick_43">
     <g id="line2d_93">
      <path d="M 55.880346 59.414337 
L 450 59.414337 
" clip-path="url(#p37972332d8)" style="fill: none; stroke: #b0b0b0; stroke-opacity: 0.25; stroke-width: 0.8; stroke-linecap: square"/>
     </g>
     <g id="line2d_94">
      <g>
       <use xlink:href="#m819e5ff5c4" x="55.880346" y="59.414337" style="stroke: #000000; stroke-width: 0.6"/>
      </g>
     </g>
    </g>
    <g id="ytick_44">
     <g id="line2d_95">
      <path d="M 55.880346 56.922698 
L 450 56.922698 
" clip-path="url(#p37972332d8)" style="fill: none; stroke: #b0b0b0; stroke-opacity: 0.25; stroke-width: 0.8; stroke-linecap: square"/>
     </g>
     <g id="line2d_96">
      <g>
       <use xlink:href="#m819e5ff5c4" x="55.880346" y="56.922698" style="stroke: #000000; stroke-width: 0.6"/>
      </g>
     </g>
    </g>
    <g id="ytick_45">
     <g id="line2d_97">
      <path d="M 55.880346 54.724917 
L 450 54.724917 
" clip-path="url(#p37972332d8)" style="fill: none; stroke: #b0b0b0; stroke-opacity: 0.25; stroke-width: 0.8; stroke-linecap: square"/>
     </g>
     <g id="line2d_98">
      <g>
       <use xlink:href="#m819e5ff5c4" x="55.880346" y="54.724917" style="stroke: #000000; stroke-width: 0.6"/>
      </g>
     </g>
    </g>
    <g id="ytick_46">
     <g id="line2d_99">
      <path d="M 55.880346 39.825105 
L 450 39.825105 
" clip-path="url(#p37972332d8)" style="fill: none; stroke: #b0b0b0; stroke-opacity: 0.25; stroke-width: 0.8; stroke-linecap: square"/>
     </g>
     <g id="line2d_100">
      <g>
       <use xlink:href="#m819e5ff5c4" x="55.880346" y="39.825105" style="stroke: #000000; stroke-width: 0.6"/>
      </g>
     </g>
    </g>
    <g id="text_11">
     <!-- median wall time per call (s) -->
     <g transform="translate(19.300659 218.554781) rotate(-90) scale(0.1 -0.1)">
      <defs>
       <path id="DejaVuSans-6e" d="M 3513 2113 
L 3513 0 
L 2938 0 
L 2938 2094 
Q 2938 2591 2744 2837 
Q 2550 3084 2163 3084 
Q 1697 3084 1428 2787 
Q 1159 2491 1159 1978 
L 1159 0 
L 581 0 
L 581 3500 
L 1159 3500 
L 1159 2956 
Q 1366 3272 1645 3428 
Q 1925 3584 2291 3584 
Q 2894 3584 3203 3211 
Q 3513 2838 3513 2113 
z
" transform="scale(0.015625)"/>
       <path id="DejaVuSans-77" d="M 269 3500 
L 844 3500 
L 1563 769 
L 2278 3500 
L 2956 3500 
L 3675 769 
L 4391 3500 
L 4966 3500 
L 4050 0 
L 3372 0 
L 2619 2869 
L 1863 0 
L 1184 0 
L 269 3500 
z
" transform="scale(0.015625)"/>
       <path id="DejaVuSans-70" d="M 1159 525 
L 1159 -1331 
L 581 -1331 
L 581 3500 
L 1159 3500 
L 1159 2969 
Q 1341 3281 1617 3432 
Q 1894 3584 2278 3584 
Q 2916 3584 3314 3078 
Q 3713 2572 3713 1747 
Q 3713 922 3314 415 
Q 2916 -91 2278 -91 
Q 1894 -91 1617 61 
Q 1341 213 1159 525 
z
M 3116 1747 
Q 3116 2381 2855 2742 
Q 2594 3103 2138 3103 
Q 1681 3103 1420 2742 
Q 1159 2381 1159 1747 
Q 1159 1113 1420 752 
Q 1681 391 2138 391 
Q 2594 391 2855 752 
Q 3116 1113 3116 1747 
z
" transform="scale(0.015625)"/>
      </defs>
      <use xlink:href="#DejaVuSans-6d"/>
      <use xlink:href="#DejaVuSans-65" transform="translate(97.412109 0)"/>
      <use xlink:href="#DejaVuSans-64" transform="translate(158.935547 0)"/>
      <use xlink:href="#DejaVuSans-69" transform="translate(222.412109 0)"/>
      <use xlink:href="#DejaVuSans-61" transform="translate(250.195312 0)"/>
      <use xlink:href="#DejaVuSans-6e" transform="translate(311.474609 0)"/>
      <use xlink:href="#DejaVuSans-20" transform="translate(374.853516 0)"/>
      <use xlink:href="#DejaVuSans-77" transform="translate(406.640625 0)"/>
      <use xlink:href="#DejaVuSans-61" transform="translate(488.427734 0)"/>
      <use xlink:href="#DejaVuSans-6c" transform="translate(549.707031 0)"/>
      <use xlink:href="#DejaVuSans-6c" transform="translate(577.490234 0)"/>
      <use xlink:href="#DejaVuSans-20" transform="translate(605.273438 0)"/>
      <use xlink:href="#DejaVuSans-74" transform="translate(637.060547 0)"/>
      <use xlink:href="#DejaVuSans-69" transform="translate(676.269531 0)"/>
      <use xlink:href="#DejaVuSans-6d" transform="translate(704.052734 0)"/>
      <use xlink:href="#DejaVuSans-65" transform="translate(801.464844 0)"/>
      <use xlink:href="#DejaVuSans-20" transform="translate(862.988281 0)"/>
      <use xlink:href="#DejaVuSans-70" transform="translate(894.775391 0)"/>
      <use xlink:href="#DejaVuSans-65" transform="translate(958.251953 0)"/>
      <use xlink:href="#DejaVuSans-72" transform="translate(1019.775391 0)"/>
      <use xlink:href="#DejaVuSans-20" transform="translate(1060.888672 0)"/>
      <use xlink:href="#DejaVuSans-63" transform="translate(1092.675781 0)"/>
      <use xlink:href="#DejaVuSans-61" transform="translate(1147.65625 0)"/>
      <use xlink:href="#DejaVuSans-6c" transform="translate(1208.935547 0)"/>
      <use xlink:href="#DejaVuSans-6c" transform="translate(1236.71875 0)"/>
      <use xlink:href="#DejaVuSans-20" transform="translate(1264.501953 0)"/>
      <use xlink:href="#DejaVuSans-28" transform="translate(1296.289062 0)"/>
      <use xlink:href="#DejaVuSans-73" transform="translate(1335.302734 0)"/>
      <use xlink:href="#DejaVuSans-29" transform="translate(1387.402344 0)"/>
     </g>
    </g>
   </g>
   <g id="line2d_101">
    <path d="M 73.794876 171.743115 
L 193.225074 121.311247 
L 312.655272 73.047564 
L 432.08547 46.940023 
" clip-path="url(#p37972332d8)" style="fill: none; stroke: #1f77b4; stroke-width: 1.5; stroke-linecap: square"/>
    <defs>
     <path id="md423c3f50e" d="M 0 3 
C 0.795609 3 1.55874 2.683901 2.12132 2.12132 
C 2.683901 1.55874 3 0.795609 3 0 
C 3 -0.795609 2.683901 -1.55874 2.12132 -2.12132 
C 1.55874 -2.683901 0.795609 -3 0 -3 
C -0.795609 -3 -1.55874 -2.683901 -2.12132 -2.12132 
C -2.683901 -1.55874 -3 -0.795609 -3 0 
C -3 0.795609 -2.683901 1.55874 -2.12132 2.12132 
C -1.55874 2.683901 -0.795609 3 0 3 
z
" style="stroke: #1f77b4"/>
    </defs>
    <g clip-path="url(#p37972332d8)">
     <use xlink:href="#md423c3f50e" x="73.794876" y="171.743115" style="fill: #1f77b4; stroke: #1f77b4"/>
     <use xlink:href="#md423c3f50e" x="193.225074" y="121.311247" style="fill: #1f77b4; stroke: #1f77b4"/>
     <use xlink:href="#md423c3f50e" x="312.655272" y="73.047564" style="fill: #1f77b4; stroke: #1f77b4"/>
     <use xlink:href="#md423c3f50e" x="432.08547" y="46.940023" style="fill: #1f77b4; stroke: #1f77b4"/>
    </g>
   </g>
   <g id="line2d_102">
    <path d="M 73.794876 196.762305 
L 193.225074 172.523702 
L 312.655272 113.753993 
L 432.08547 68.373379 
" clip-path="url(#p37972332d8)" style="fill: none; stroke: #d62728; stroke-width: 1.5; stroke-linecap: square"/>
    <defs>
     <path id="md8af7eb354" d="M -3 3 
L 3 3 
L 3 -3 
L -3 -3 
z
" style="stroke: #d62728; stroke-linejoin: miter"/>
    </defs>
    <g clip-path="url(#p37972332d8)">
     <use xlink:href="#md8af7eb354" x="73.794876" y="196.762305" style="fill: #d62728; stroke: #d62728; stroke-linejoin: miter"/>
     <use xlink:href="#md8af7eb354" x="193.225074" y="172.523702" style="fill: #d62728; stroke: #d62728; stroke-linejoin: miter"/>
     <use xlink:href="#md8af7eb354" x="312.655272" y="113.753993" style="fill: #d62728; stroke: #d62728; stroke-linejoin: miter"/>
     <use xlink:href="#md8af7eb354" x="432.08547" y="68.373379" style="fill: #d62728; stroke: #d62728; stroke-linejoin: miter"/>
    </g>
   </g>
   <g id="line2d_103">
    <path d="M 73.794876 247.530477 
L 193.225074 218.320334 
L 312.655272 200.750563 
L 432.08547 185.869734 
" clip-path="url(#p37972332d8)" style="fill: none; stroke-dasharray: 5.55,2.4; stroke-dashoffset: 0; stroke: #7f7f7f; stroke-width: 1.5"/>
    <defs>
     <path id="m3c177bb2ab" d="M 0 -3 
L -3 3 
L 3 3 
z
" style="stroke: #7f7f7f; stroke-linejoin: miter"/>
    </defs>
    <g clip-path="url(#p37972332d8)">
     <use xlink:href="#m3c177bb2ab" x="73.794876" y="247.530477" style="fill: #7f7f7f; stroke: #7f7f7f; stroke-linejoin: miter"/>
     <use xlink:href="#m3c177bb2ab" x="193.225074" y="218.320334" style="fill: #7f7f7f; stroke: #7f7f7f; stroke-linejoin: miter"/>
     <use xlink:href="#m3c177bb2ab" x="312.655272" y="200.750563" style="fill: #7f7f7f; stroke: #7f7f7f; stroke-linejoin: miter"/>
     <use xlink:href="#m3c177bb2ab" x="432.08547" y="185.869734" style="fill: #7f7f7f; stroke: #7f7f7f; stroke-linejoin: miter"/>
    </g>
   </g>
   <g id="line2d_104">
    <path d="M 252.940173 257.56 
L 252.940173 36.9105 
" clip-path="url(#p37972332d8)" style="fill: none; stroke-dasharray: 1.2,1.98; stroke-dashoffset: 0; stroke: #2ca02c; stroke-width: 1.2"/>
   </g>
   <g id="patch_3">
    <path d="M 55.880346 257.56 
L 55.880346 36.9105 
" style="fill: none; stroke: #000000; stroke-width: 0.8; stroke-linejoin: miter; stroke-linecap: square"/>
   </g>
   <g id="patch_4">
    <path d="M 450 257.56 
L 450 36.9105 
" style="fill: none; stroke: #000000; stroke-width: 0.8; stroke-linejoin: miter; stroke-linecap: square"/>
   </g>
   <g id="patch_5">
    <path d="M 55.880346 257.56 
L 450 257.56 
" style="fill: none; stroke: #000000; stroke-width: 0.8; stroke-linejoin: miter; stroke-linecap: square"/>
   </g>
   <g id="patch_6">
    <path d="M 55.880346 36.9105 
L 450 36.9105 
" style="fill: none; stroke: #000000; stroke-width: 0.8; stroke-linejoin: miter; stroke-linecap: square"/>
   </g>
   <g id="text_12">
    <!-- classical declines at level boundary; -->
    <g style="fill: #2ca02c" transform="translate(98.728257 153.555309) scale(0.08 -0.08)">
     <defs>
      <path id="DejaVuSans-76" d="M 191 3500 
L 800 3500 
L 1894 563 
L 2988 3500 
L 3597 3500 
L 2284 0 
L 1503 0 
L 191 3500 
z
" transform="scale(0.015625)"/>
      <path id="DejaVuSans-75" d="M 544 1381 
L 544 3500 
L 1119 3500 
L 1119 1403 
Q 1119 906 1312 657 
Q 1506 409 1894 409 
Q 2359 409 2629 706 
Q 2900 1003 2900 1516 
L 2900 3500 
L 3475 3500 
L 3475 0 
L 2900 0 
L 2900 538 
Q 2691 219 2414 64 
Q 2138 -91 1772 -91 
Q 1169 -91 856 284 
Q 544 659 544 1381 
z
M 1991 3584 
L 1991 3584 
z
" transform="scale(0.015625)"/>
      <path id="DejaVuSans-79" d="M 2059 -325 
Q 1816 -950 1584 -1140 
Q 1353 -1331 966 -1331 
L 506 -1331 
L 506 -850 
L 844 -850 
Q 1081 -850 1212 -737 
Q 1344 -625 1503 -206 
L 1606 56 
L 191 3500 
L 800 3500 
L 1894 763 
L 2988 3500 
L 3597 3500 
L 2059 -325 
z
" transform="scale(0.015625)"/>
      <path id="DejaVuSans-3b" d="M 750 3309 
L 1409 3309 
L 1409 2516 
L 750 2516 
L 750 3309 
z
M 750 794 
L 1409 794 
L 1409 256 
L 897 -744 
L 494 -744 
L 750 256 
L 750 794 
z
" transform="scale(0.015625)"/>
     </defs>
     <use xlink:href="#DejaVuSans-63"/>
     <use xlink:href="#DejaVuSans-6c" transform="translate(54.980469 0)"/>
     <use xlink:href="#DejaVuSans-61" transform="translate(82.763672 0)"/>
     <use xlink:href="#DejaVuSans-73" transform="translate(144.042969 0)"/>
     <use xlink:href="#DejaVuSans-73" transform="translate(196.142578 0)"/>
     <use xlink:href="#DejaVuSans-69" transform="translate(248.242188 0)"/>
     <use xlink:href="#DejaVuSans-63" transform="translate(276.025391 0)"/>
     <use xlink:href="#DejaVuSans-61" transform="translate(331.005859 0)"/>
     <use xlink:href="#DejaVuSans-6c" transform="translate(392.285156 0)"/>
     <use xlink:href="#DejaVuSans-20" transform="translate(420.068359 0)"/>
     <use xlink:href="#DejaVuSans-64" transform="translate(451.855469 0)"/>
     <use xlink:href="#DejaVuSans-65" transform="translate(515.332031 0)"/>
     <use xlink:href="#DejaVuSans-63" transform="translate(576.855469 0)"/>
     <use xlink:href="#DejaVuSans-6c" transform="translate(631.835938 0)"/>
     <use xlink:href="#DejaVuSans-69" transform="translate(659.619141 0)"/>
     <use xlink:href="#DejaVuSans-6e" transform="translate(687.402344 0)"/>
     <use xlink:href="#DejaVuSans-65" transform="translate(750.78125 0)"/>
     <use xlink:href="#DejaVuSans-73" transform="translate(812.304688 0)"/>
     <use xlink:href="#DejaVuSans-20" transform="translate(864.404297 0)"/>
     <use xlink:href="#DejaVuSans-61" transform="translate(896.191406 0)"/>
     <use xlink:href="#DejaVuSans-74" transform="translate(957.470703 0)"/>
     <use xlink:href="#DejaVuSans-20" transform="translate(996.679688 0)"/>
     <use xlink:href="#DejaVuSans-6c" transform="translate(1028.466797 0)"/>
     <use xlink:href="#DejaVuSans-65" transform="translate(1056.25 0)"/>
     <use xlink:href="#DejaVuSans-76" transform="translate(1117.773438 0)"/>
     <use xlink:href="#DejaVuSans-65" transform="translate(1176.953125 0)"/>
     <use xlink:href="#DejaVuSans-6c" transform="translate(1238.476562 0)"/>
     <use xlink:href="#DejaVuSans-20" transform="translate(1266.259766 0)"/>
     <use xlink:href="#DejaVuSans-62" transform="translate(1298.046875 0)"/>
     <use xlink:href="#DejaVuSans-6f" transform="translate(1361.523438 0)"/>
     <use xlink:href="#DejaVuSans-75" transform="translate(1422.705078 0)"/>
     <use xlink:href="#DejaVuSans-6e" transform="translate(1486.083984 0)"/>
     <use xlink:href="#DejaVuSans-64" transform="translate(1549.462891 0)"/>
     <use xlink:href="#DejaVuSans-61" transform="translate(1612.939453 0)"/>
     <use xlink:href="#DejaVuSans-72" transform="translate(1674.21875 0)"/>
     <use xlink:href="#DejaVuSans-79" transform="translate(1715.332031 0)"/>
     <use xlink:href="#DejaVuSans-3b" transform="translate(1774.511719 0)"/>
    </g>
    <!-- CLD lattice tier answers -->
    <g style="fill: #2ca02c" transform="translate(147.982007 162.513559) scale(0.08 -0.08)">
     <defs>
      <path id="DejaVuSans-43" d="M 4122 4306 
L 4122 3641 
Q 3803 3938 3442 4084 
Q 3081 4231 2675 4231 
Q 1875 4231 1450 3742 
Q 1025 3253 1025 2328 
Q 1025 1406 1450 917 
Q 1875 428 2675 428 
Q 3081 428 3442 575 
Q 3803 722 4122 1019 
L 4122 359 
Q 3791 134 3420 21 
Q 3050 -91 2638 -91 
Q 1578 -91 968 557 
Q 359 1206 359 2328 
Q 359 3453 968 4101 
Q 1578 4750 2638 4750 
Q 3056 4750 3426 4639 
Q 3797 4528 4122 4306 
z
" transform="scale(0.015625)"/>
      <path id="DejaVuSans-4c" d="M 628 4666 
L 1259 4666 
L 1259 531 
L 3531 531 
L 3531 0 
L 628 0 
L 628 4666 
z
" transform="scale(0.015625)"/>
      <path id="DejaVuSans-44" d="M 1259 4147 
L 1259 519 
L 2022 519 
Q 2988 519 3436 956 
Q 3884 1394 3884 2338 
Q 3884 3275 3436 3711 
Q 2988 4147 2022 4147 
L 1259 4147 
z
M 628 4666 
L 1925 4666 
Q 3281 4666 3915 4102 
Q 4550 3538 4550 2338 
Q 4550 1131 3912 565 
Q 3275 0 1925 0 
L 628 0 
L 628 4666 
z
" transform="scale(0.015625)"/>
     </defs>
     <use xlink:href="#DejaVuSans-43"/>
     <use xlink:href="#DejaVuSans-4c" transform="translate(69.824219 0)"/>
     <use xlink:href="#DejaVuSans-44" transform="translate(125.537109 0)"/>
     <use xlink:href="#DejaVuSans-20" transform="translate(202.539062 0)"/>
     <use xlink:href="#DejaVuSans-6c" transform="translate(234.326172 0)"/>
     <use xlink:href="#DejaVuSans-61" transform="translate(262.109375 0)"/>
     <use xlink:href="#DejaVuSans-74" transform="translate(323.388672 0)"/>
     <use xlink:href="#DejaVuSans-74" transform="translate(362.597656 0)"/>
     <use xlink:href="#DejaVuSans-69" transform="translate(401.806641 0)"/>
     <use xlink:href="#DejaVuSans-63" transform="translate(429.589844 0)"/>
     <use xlink:href="#DejaVuSans-65" transform="translate(484.570312 0)"/>
     <use xlink:href="#DejaVuSans-20" transform="translate(546.09375 0)"/>
     <use xlink:href="#DejaVuSans-74" transform="translate(577.880859 0)"/>
     <use xlink:href="#DejaVuSans-69" transform="translate(617.089844 0)"/>
     <use xlink:href="#DejaVuSans-65" transform="translate(644.873047 0)"/>
     <use xlink:href="#DejaVuSans-72" transform="translate(706.396484 0)"/>
     <use xlink:href="#DejaVuSans-20" transform="translate(747.509766 0)"/>
     <use xlink:href="#DejaVuSans-61" transform="translate(779.296875 0)"/>
     <use xlink:href="#DejaVuSans-6e" transform="translate(840.576172 0)"/>
     <use xlink:href="#DejaVuSans-73" transform="translate(903.955078 0)"/>
     <use xlink:href="#DejaVuSans-77" transform="translate(956.054688 0)"/>
     <use xlink:href="#DejaVuSans-65" transform="translate(1037.841797 0)"/>
     <use xlink:href="#DejaVuSans-72" transform="translate(1099.365234 0)"/>
     <use xlink:href="#DejaVuSans-73" transform="translate(1140.478516 0)"/>
    </g>
   </g>
   <g id="text_13">
    <!-- Block ladder  $\prod_{i&lt;m}$ SD$_4(x+i)$ -->
    <g transform="translate(177.755173 25.9105) scale(0.11 -0.11)">
     <defs>
      <path id="DejaVuSans-42" d="M 1259 2228 
L 1259 519 
L 2272 519 
Q 2781 519 3026 730 
Q 3272 941 3272 1375 
Q 3272 1813 3026 2020 
Q 2781 2228 2272 2228 
L 1259 2228 
z
M 1259 4147 
L 1259 2741 
L 2194 2741 
Q 2656 2741 2882 2914 
Q 3109 3088 3109 3444 
Q 3109 3797 2882 3972 
Q 2656 4147 2194 4147 
L 1259 4147 
z
M 628 4666 
L 2241 4666 
Q 2963 4666 3353 4366 
Q 3744 4066 3744 3513 
Q 3744 3084 3544 2831 
Q 3344 2578 2956 2516 
Q 3422 2416 3680 2098 
Q 3938 1781 3938 1306 
Q 3938 681 3513 340 
Q 3088 0 2303 0 
L 628 0 
L 628 4666 
z
" transform="scale(0.015625)"/>
      <path id="DejaVuSansDisplay-220f" d="M 691 6509 
L 6156 6509 
L 6156 -1738 
L 5097 -1738 
L 5097 5603 
L 1747 5603 
L 1747 -1738 
L 691 -1738 
L 691 6509 
z
" transform="scale(0.015625)"/>
      <path id="DejaVuSans-Oblique-69" d="M 1172 4863 
L 1747 4863 
L 1606 4134 
L 1031 4134 
L 1172 4863 
z
M 909 3500 
L 1484 3500 
L 800 0 
L 225 0 
L 909 3500 
z
" transform="scale(0.015625)"/>
      <path id="DejaVuSans-3c" d="M 4684 3150 
L 1459 2003 
L 4684 863 
L 4684 294 
L 678 1747 
L 678 2266 
L 4684 3719 
L 4684 3150 
z
" transform="scale(0.015625)"/>
      <path id="DejaVuSans-53" d="M 3425 4513 
L 3425 3897 
Q 3066 4069 2747 4153 
Q 2428 4238 2131 4238 
Q 1616 4238 1336 4038 
Q 1056 3838 1056 3469 
Q 1056 3159 1242 3001 
Q 1428 2844 1947 2747 
L 2328 2669 
Q 3034 2534 3370 2195 
Q 3706 1856 3706 1288 
Q 3706 609 3251 259 
Q 2797 -91 1919 -91 
Q 1588 -91 1214 -16 
Q 841 59 441 206 
L 441 856 
Q 825 641 1194 531 
Q 1563 422 1919 422 
Q 2459 422 2753 634 
Q 3047 847 3047 1241 
Q 3047 1584 2836 1778 
Q 2625 1972 2144 2069 
L 1759 2144 
Q 1053 2284 737 2584 
Q 422 2884 422 3419 
Q 422 4038 858 4394 
Q 1294 4750 2059 4750 
Q 2388 4750 2728 4690 
Q 3069 4631 3425 4513 
z
" transform="scale(0.015625)"/>
      <path id="DejaVuSans-Oblique-78" d="M 3841 3500 
L 2234 1784 
L 3219 0 
L 2559 0 
L 1819 1388 
L 531 0 
L -166 0 
L 1556 1844 
L 641 3500 
L 1300 3500 
L 1972 2234 
L 3144 3500 
L 3841 3500 
z
" transform="scale(0.015625)"/>
      <path id="DejaVuSans-2b" d="M 2944 4013 
L 2944 2272 
L 4684 2272 
L 4684 1741 
L 2944 1741 
L 2944 0 
L 2419 0 
L 2419 1741 
L 678 1741 
L 678 2272 
L 2419 2272 
L 2419 4013 
L 2944 4013 
z
" transform="scale(0.015625)"/>
     </defs>
     <use xlink:href="#DejaVuSans-42" transform="translate(0 0.296875)"/>
     <use xlink:href="#DejaVuSans-6c" transform="translate(68.603516 0.296875)"/>
     <use xlink:href="#DejaVuSans-6f" transform="translate(96.386719 0.296875)"/>
     <use xlink:href="#DejaVuSans-63" transform="translate(157.568359 0.296875)"/>
     <use xlink:href="#DejaVuSans-6b" transform="translate(212.548828 0.296875)"/>
     <use xlink:href="#DejaVuSans-20" transform="translate(270.458984 0.296875)"/>
     <use xlink:href="#DejaVuSans-6c" transform="translate(302.246094 0.296875)"/>
     <use xlink:href="#DejaVuSans-61" transform="translate(330.029297 0.296875)"/>
     <use xlink:href="#DejaVuSans-64" transform="translate(391.308594 0.296875)"/>
     <use xlink:href="#DejaVuSans-64" transform="translate(454.785156 0.296875)"/>
     <use xlink:href="#DejaVuSans-65" transform="translate(518.261719 0.296875)"/>
     <use xlink:href="#DejaVuSans-72" transform="translate(579.785156 0.296875)"/>
     <use xlink:href="#DejaVuSans-20" transform="translate(620.898438 0.296875)"/>
     <use xlink:href="#DejaVuSans-20" transform="translate(652.685547 0.296875)"/>
     <use xlink:href="#DejaVuSansDisplay-220f" transform="translate(728.472656 0.296875)"/>
     <use xlink:href="#DejaVuSans-Oblique-69" transform="translate(684.472656 -98.798438) scale(0.7)"/>
     <use xlink:href="#DejaVuSans-3c" transform="translate(717.558594 -98.798438) scale(0.7)"/>
     <use xlink:href="#DejaVuSans-Oblique-6d" transform="translate(789.848633 -98.798438) scale(0.7)"/>
     <use xlink:href="#DejaVuSans-20" transform="translate(858.037109 0.296875)"/>
     <use xlink:href="#DejaVuSans-53" transform="translate(889.824219 0.296875)"/>
     <use xlink:href="#DejaVuSans-44" transform="translate(953.300781 0.296875)"/>
     <use xlink:href="#DejaVuSans-34" transform="translate(1031.259766 -16.109375) scale(0.7)"/>
     <use xlink:href="#DejaVuSans-28" transform="translate(1078.530273 0.296875)"/>
     <use xlink:href="#DejaVuSans-Oblique-78" transform="translate(1117.543945 0.296875)"/>
     <use xlink:href="#DejaVuSans-2b" transform="translate(1196.206055 0.296875)"/>
     <use xlink:href="#DejaVuSans-Oblique-69" transform="translate(1299.477539 0.296875)"/>
     <use xlink:href="#DejaVuSans-29" transform="translate(1327.260742 0.296875)"/>
    </g>
   </g>
   <g id="legend_1">
    <g id="patch_7">
     <path d="M 61.480346 78.858 
L 263.139096 78.858 
Q 264.739096 78.858 264.739096 77.258 
L 264.739096 42.5105 
Q 264.739096 40.9105 263.139096 40.9105 
L 61.480346 40.9105 
Q 59.880346 40.9105 59.880346 42.5105 
L 59.880346 77.258 
Q 59.880346 78.858 61.480346 78.858 
z
" style="fill: #ffffff; opacity: 0.8; stroke: #cccccc; stroke-linejoin: miter"/>
    </g>
    <g id="line2d_105">
     <path d="M 63.080346 47.70925 
L 71.080346 47.70925 
L 79.080346 47.70925 
" style="fill: none; stroke: #1f77b4; stroke-width: 1.5; stroke-linecap: square"/>
     <g>
      <use xlink:href="#md423c3f50e" x="71.080346" y="47.70925" style="fill: #1f77b4; stroke: #1f77b4"/>
     </g>
    </g>
    <g id="text_14">
     <!-- hex `factor` (hybrid) -->
     <g transform="translate(85.480346 50.50925) scale(0.08 -0.08)">
      <defs>
       <path id="DejaVuSans-78" d="M 3513 3500 
L 2247 1797 
L 3578 0 
L 2900 0 
L 1881 1375 
L 863 0 
L 184 0 
L 1544 1831 
L 300 3500 
L 978 3500 
L 1906 2253 
L 2834 3500 
L 3513 3500 
z
" transform="scale(0.015625)"/>
       <path id="DejaVuSans-60" d="M 1147 5119 
L 2028 3950 
L 1550 3950 
L 531 5119 
L 1147 5119 
z
" transform="scale(0.015625)"/>
      </defs>
      <use xlink:href="#DejaVuSans-68"/>
      <use xlink:href="#DejaVuSans-65" transform="translate(63.378906 0)"/>
      <use xlink:href="#DejaVuSans-78" transform="translate(123.152344 0)"/>
      <use xlink:href="#DejaVuSans-20" transform="translate(182.332031 0)"/>
      <use xlink:href="#DejaVuSans-60" transform="translate(214.119141 0)"/>
      <use xlink:href="#DejaVuSans-66" transform="translate(264.119141 0)"/>
      <use xlink:href="#DejaVuSans-61" transform="translate(299.324219 0)"/>
      <use xlink:href="#DejaVuSans-63" transform="translate(360.603516 0)"/>
      <use xlink:href="#DejaVuSans-74" transform="translate(415.583984 0)"/>
      <use xlink:href="#DejaVuSans-6f" transform="translate(454.792969 0)"/>
      <use xlink:href="#DejaVuSans-72" transform="translate(515.974609 0)"/>
      <use xlink:href="#DejaVuSans-60" transform="translate(557.087891 0)"/>
      <use xlink:href="#DejaVuSans-20" transform="translate(607.087891 0)"/>
      <use xlink:href="#DejaVuSans-28" transform="translate(638.875 0)"/>
      <use xlink:href="#DejaVuSans-68" transform="translate(677.888672 0)"/>
      <use xlink:href="#DejaVuSans-79" transform="translate(741.267578 0)"/>
      <use xlink:href="#DejaVuSans-62" transform="translate(800.447266 0)"/>
      <use xlink:href="#DejaVuSans-72" transform="translate(863.923828 0)"/>
      <use xlink:href="#DejaVuSans-69" transform="translate(905.037109 0)"/>
      <use xlink:href="#DejaVuSans-64" transform="translate(932.820312 0)"/>
      <use xlink:href="#DejaVuSans-29" transform="translate(996.296875 0)"/>
     </g>
    </g>
    <g id="line2d_106">
     <path d="M 63.080346 59.45175 
L 71.080346 59.45175 
L 79.080346 59.45175 
" style="fill: none; stroke: #d62728; stroke-width: 1.5; stroke-linecap: square"/>
     <g>
      <use xlink:href="#md8af7eb354" x="71.080346" y="59.45175" style="fill: #d62728; stroke: #d62728; stroke-linejoin: miter"/>
     </g>
    </g>
    <g id="text_15">
     <!-- Isabelle (verified AFP, overhead-subtracted) -->
     <g transform="translate(85.480346 62.25175) scale(0.08 -0.08)">
      <defs>
       <path id="DejaVuSans-49" d="M 628 4666 
L 1259 4666 
L 1259 0 
L 628 0 
L 628 4666 
z
" transform="scale(0.015625)"/>
       <path id="DejaVuSans-41" d="M 2188 4044 
L 1331 1722 
L 3047 1722 
L 2188 4044 
z
M 1831 4666 
L 2547 4666 
L 4325 0 
L 3669 0 
L 3244 1197 
L 1141 1197 
L 716 0 
L 50 0 
L 1831 4666 
z
" transform="scale(0.015625)"/>
       <path id="DejaVuSans-46" d="M 628 4666 
L 3309 4666 
L 3309 4134 
L 1259 4134 
L 1259 2759 
L 3109 2759 
L 3109 2228 
L 1259 2228 
L 1259 0 
L 628 0 
L 628 4666 
z
" transform="scale(0.015625)"/>
       <path id="DejaVuSans-50" d="M 1259 4147 
L 1259 2394 
L 2053 2394 
Q 2494 2394 2734 2622 
Q 2975 2850 2975 3272 
Q 2975 3691 2734 3919 
Q 2494 4147 2053 4147 
L 1259 4147 
z
M 628 4666 
L 2053 4666 
Q 2838 4666 3239 4311 
Q 3641 3956 3641 3272 
Q 3641 2581 3239 2228 
Q 2838 1875 2053 1875 
L 1259 1875 
L 1259 0 
L 628 0 
L 628 4666 
z
" transform="scale(0.015625)"/>
       <path id="DejaVuSans-2d" d="M 313 2009 
L 1997 2009 
L 1997 1497 
L 313 1497 
L 313 2009 
z
" transform="scale(0.015625)"/>
      </defs>
      <use xlink:href="#DejaVuSans-49"/>
      <use xlink:href="#DejaVuSans-73" transform="translate(29.492188 0)"/>
      <use xlink:href="#DejaVuSans-61" transform="translate(81.591797 0)"/>
      <use xlink:href="#DejaVuSans-62" transform="translate(142.871094 0)"/>
      <use xlink:href="#DejaVuSans-65" transform="translate(206.347656 0)"/>
      <use xlink:href="#DejaVuSans-6c" transform="translate(267.871094 0)"/>
      <use xlink:href="#DejaVuSans-6c" transform="translate(295.654297 0)"/>
      <use xlink:href="#DejaVuSans-65" transform="translate(323.4375 0)"/>
      <use xlink:href="#DejaVuSans-20" transform="translate(384.960938 0)"/>
      <use xlink:href="#DejaVuSans-28" transform="translate(416.748047 0)"/>
      <use xlink:href="#DejaVuSans-76" transform="translate(455.761719 0)"/>
      <use xlink:href="#DejaVuSans-65" transform="translate(514.941406 0)"/>
      <use xlink:href="#DejaVuSans-72" transform="translate(576.464844 0)"/>
      <use xlink:href="#DejaVuSans-69" transform="translate(617.578125 0)"/>
      <use xlink:href="#DejaVuSans-66" transform="translate(645.361328 0)"/>
      <use xlink:href="#DejaVuSans-69" transform="translate(680.566406 0)"/>
      <use xlink:href="#DejaVuSans-65" transform="translate(708.349609 0)"/>
      <use xlink:href="#DejaVuSans-64" transform="translate(769.873047 0)"/>
      <use xlink:href="#DejaVuSans-20" transform="translate(833.349609 0)"/>
      <use xlink:href="#DejaVuSans-41" transform="translate(865.136719 0)"/>
      <use xlink:href="#DejaVuSans-46" transform="translate(933.544922 0)"/>
      <use xlink:href="#DejaVuSans-50" transform="translate(991.064453 0)"/>
      <use xlink:href="#DejaVuSans-2c" transform="translate(1051.367188 0)"/>
      <use xlink:href="#DejaVuSans-20" transform="translate(1083.154297 0)"/>
      <use xlink:href="#DejaVuSans-6f" transform="translate(1114.941406 0)"/>
      <use xlink:href="#DejaVuSans-76" transform="translate(1176.123047 0)"/>
      <use xlink:href="#DejaVuSans-65" transform="translate(1235.302734 0)"/>
      <use xlink:href="#DejaVuSans-72" transform="translate(1296.826172 0)"/>
      <use xlink:href="#DejaVuSans-68" transform="translate(1336.189453 0)"/>
      <use xlink:href="#DejaVuSans-65" transform="translate(1399.568359 0)"/>
      <use xlink:href="#DejaVuSans-61" transform="translate(1461.091797 0)"/>
      <use xlink:href="#DejaVuSans-64" transform="translate(1522.371094 0)"/>
      <use xlink:href="#DejaVuSans-2d" transform="translate(1585.847656 0)"/>
      <use xlink:href="#DejaVuSans-73" transform="translate(1621.931641 0)"/>
      <use xlink:href="#DejaVuSans-75" transform="translate(1674.03125 0)"/>
      <use xlink:href="#DejaVuSans-62" transform="translate(1737.410156 0)"/>
      <use xlink:href="#DejaVuSans-74" transform="translate(1800.886719 0)"/>
      <use xlink:href="#DejaVuSans-72" transform="translate(1840.095703 0)"/>
      <use xlink:href="#DejaVuSans-61" transform="translate(1881.208984 0)"/>
      <use xlink:href="#DejaVuSans-63" transform="translate(1942.488281 0)"/>
      <use xlink:href="#DejaVuSans-74" transform="translate(1997.46875 0)"/>
      <use xlink:href="#DejaVuSans-65" transform="translate(2036.677734 0)"/>
      <use xlink:href="#DejaVuSans-64" transform="translate(2098.201172 0)"/>
      <use xlink:href="#DejaVuSans-29" transform="translate(2161.677734 0)"/>
     </g>
    </g>
    <g id="line2d_107">
     <path d="M 63.080346 71.19425 
L 71.080346 71.19425 
L 79.080346 71.19425 
" style="fill: none; stroke-dasharray: 5.55,2.4; stroke-dashoffset: 0; stroke: #7f7f7f; stroke-width: 1.5"/>
     <g>
      <use xlink:href="#m3c177bb2ab" x="71.080346" y="71.19425" style="fill: #7f7f7f; stroke: #7f7f7f; stroke-linejoin: miter"/>
     </g>
    </g>
    <g id="text_16">
     <!-- FLINT (informational) -->
     <g transform="translate(85.480346 73.99425) scale(0.08 -0.08)">
      <defs>
       <path id="DejaVuSans-4e" d="M 628 4666 
L 1478 4666 
L 3547 763 
L 3547 4666 
L 4159 4666 
L 4159 0 
L 3309 0 
L 1241 3903 
L 1241 0 
L 628 0 
L 628 4666 
z
" transform="scale(0.015625)"/>
       <path id="DejaVuSans-54" d="M -19 4666 
L 3928 4666 
L 3928 4134 
L 2272 4134 
L 2272 0 
L 1638 0 
L 1638 4134 
L -19 4134 
L -19 4666 
z
" transform="scale(0.015625)"/>
      </defs>
      <use xlink:href="#DejaVuSans-46"/>
      <use xlink:href="#DejaVuSans-4c" transform="translate(57.519531 0)"/>
      <use xlink:href="#DejaVuSans-49" transform="translate(113.232422 0)"/>
      <use xlink:href="#DejaVuSans-4e" transform="translate(142.724609 0)"/>
      <use xlink:href="#DejaVuSans-54" transform="translate(217.529297 0)"/>
      <use xlink:href="#DejaVuSans-20" transform="translate(278.613281 0)"/>
      <use xlink:href="#DejaVuSans-28" transform="translate(310.400391 0)"/>
      <use xlink:href="#DejaVuSans-69" transform="translate(349.414062 0)"/>
      <use xlink:href="#DejaVuSans-6e" transform="translate(377.197266 0)"/>
      <use xlink:href="#DejaVuSans-66" transform="translate(440.576172 0)"/>
      <use xlink:href="#DejaVuSans-6f" transform="translate(475.78125 0)"/>
      <use xlink:href="#DejaVuSans-72" transform="translate(536.962891 0)"/>
      <use xlink:href="#DejaVuSans-6d" transform="translate(576.326172 0)"/>
      <use xlink:href="#DejaVuSans-61" transform="translate(673.738281 0)"/>
      <use xlink:href="#DejaVuSans-74" transform="translate(735.017578 0)"/>
      <use xlink:href="#DejaVuSans-69" transform="translate(774.226562 0)"/>
      <use xlink:href="#DejaVuSans-6f" transform="translate(802.009766 0)"/>
      <use xlink:href="#DejaVuSans-6e" transform="translate(863.191406 0)"/>
      <use xlink:href="#DejaVuSans-61" transform="translate(926.570312 0)"/>
      <use xlink:href="#DejaVuSans-6c" transform="translate(987.849609 0)"/>
      <use xlink:href="#DejaVuSans-29" transform="translate(1015.632812 0)"/>
     </g>
    </g>
   </g>
  </g>
 </g>
 <defs>
  <clipPath id="p37972332d8">
   <rect x="55.880346" y="36.9105" width="394.119654" height="220.6495"/>
  </clipPath>
 </defs>
</svg>
