<?xml version="1.0" encoding="utf-8" standalone="no"?>
<!DOCTYPE svg PUBLIC "-//W3C//DTD SVG 1.1//EN"
  "http://www.w3.org/Graphics/SVG/1.1/DTD/svg11.dtd">
<svg xmlns:xlink="http://www.w3.org/1999/xlink" width="518.4pt" height="345.6pt" viewBox="0 0 518.4 345.6" xmlns="http://www.w3.org/2000/svg" version="1.1">
 <metadata>
  <rdf:RDF xmlns:dc="http://purl.org/dc/elements/1.1/" xmlns:cc="http://creativecommons.org/ns#" xmlns:rdf="http://www.w3.org/1999/02/22-rdf-syntax-ns#">
   <cc:Work>
    <dc:type rdf:resource="http://purl.org/dc/dcmitype/StillImage"/>
    <dc:format>image/svg+xml</dc:format>
    <dc:creator>
     <cc:Agent>
      <dc:title>Matplotlib v3.10.9, https://matplotlib.org/</dc:title>
     </cc:Agent>
    </dc:creator>
   </cc:Work>
  </rdf:RDF>
 </metadata>
 <defs>
  <style type="text/css">*{stroke-linejoin: round; stroke-linecap: butt}</style>
 </defs>
 <g id="figure_1">
  <g id="patch_1">
   <path d="M 0 345.6
L 518.4 345.6
L 518.4 0
L 0 0
z
" style="fill: #ffffff"/>
  </g>
  <g id="axes_1">
   <g id="patch_2">
    <path d="M 65.9 303.64
L 507.6 303.64
L 507.6 25.44
L 65.9 25.44
z
" style="fill: #ffffff"/>
   </g>
   <g id="matplotlib.axis_1">
    <g id="xtick_1">
     <g id="line2d_1">
      <path d="M 143.569449 303.64
L 143.569449 25.44
" clip-path="url(#p7ce7bae63e)" style="fill: none; stroke: #b0b0b0; stroke-opacity: 0.5; stroke-width: 0.3; stroke-linecap: square"/>
     </g>
     <g id="line2d_2">
      <defs>
       <path id="mdf8a05c976" d="M 0 0
L 0 3.5
" style="stroke: #000000; stroke-width: 0.8"/>
      </defs>
      <g>
       <use xlink:href="#mdf8a05c976" x="143.569449" y="303.64" style="stroke: #000000; stroke-width: 0.8"/>
      </g>
     </g>
     <g id="text_1">
      <!-- 200 -->
      <g transform="translate(134.025699 318.238437) scale(0.1 -0.1)">
       <defs>
        <path id="DejaVuSans-32" d="M 1228 531
L 3431 531
L 3431 0
L 469 0
L 469 531
Q 828 903 1448 1529
Q 2069 2156 2228 2338
Q 2531 2678 2651 2914
Q 2772 3150 2772 3378
Q 2772 3750 2511 3984
Q 2250 4219 1831 4219
Q 1534 4219 1204 4116
Q 875 4013 500 3803
L 500 4441
Q 881 4594 1212 4672
Q 1544 4750 1819 4750
Q 2544 4750 2975 4387
Q 3406 4025 3406 3419
Q 3406 3131 3298 2873
Q 3191 2616 2906 2266
Q 2828 2175 2409 1742
Q 1991 1309 1228 531
z
" transform="scale(0.015625)"/>
        <path id="DejaVuSans-30" d="M 2034 4250
Q 1547 4250 1301 3770
Q 1056 3291 1056 2328
Q 1056 1369 1301 889
Q 1547 409 2034 409
Q 2525 409 2770 889
Q 3016 1369 3016 2328
Q 3016 3291 2770 3770
Q 2525 4250 2034 4250
z
M 2034 4750
Q 2819 4750 3233 4129
Q 3647 3509 3647 2328
Q 3647 1150 3233 529
Q 2819 -91 2034 -91
Q 1250 -91 836 529
Q 422 1150 422 2328
Q 422 3509 836 4129
Q 1250 4750 2034 4750
z
" transform="scale(0.015625)"/>
       </defs>
       <use xlink:href="#DejaVuSans-32"/>
       <use xlink:href="#DejaVuSans-30" transform="translate(63.623047 0)"/>
       <use xlink:href="#DejaVuSans-30" transform="translate(127.246094 0)"/>
      </g>
     </g>
    </g>
    <g id="xtick_2">
     <g id="line2d_3">
      <path d="M 223.558584 303.64
L 223.558584 25.44
" clip-path="url(#p7ce7bae63e)" style="fill: none; stroke: #b0b0b0; stroke-opacity: 0.5; stroke-width: 0.3; stroke-linecap: square"/>
     </g>
     <g id="line2d_4">
      <g>
       <use xlink:href="#mdf8a05c976" x="223.558584" y="303.64" style="stroke: #000000; stroke-width: 0.8"/>
      </g>
     </g>
     <g id="text_2">
      <!-- 300 -->
      <g transform="translate(214.014834 318.238437) scale(0.1 -0.1)">
       <defs>
        <path id="DejaVuSans-33" d="M 2597 2516
Q 3050 2419 3304 2112
Q 3559 1806 3559 1356
Q 3559 666 3084 287
Q 2609 -91 1734 -91
Q 1441 -91 1130 -33
Q 819 25 488 141
L 488 750
Q 750 597 1062 519
Q 1375 441 1716 441
Q 2309 441 2620 675
Q 2931 909 2931 1356
Q 2931 1769 2642 2001
Q 2353 2234 1838 2234
L 1294 2234
L 1294 2753
L 1863 2753
Q 2328 2753 2575 2939
Q 2822 3125 2822 3475
Q 2822 3834 2567 4026
Q 2313 4219 1838 4219
Q 1578 4219 1281 4162
Q 984 4106 628 3988
L 628 4550
Q 988 4650 1302 4700
Q 1616 4750 1894 4750
Q 2613 4750 3031 4423
Q 3450 4097 3450 3541
Q 3450 3153 3228 2886
Q 3006 2619 2597 2516
z
" transform="scale(0.015625)"/>
       </defs>
       <use xlink:href="#DejaVuSans-33"/>
       <use xlink:href="#DejaVuSans-30" transform="translate(63.623047 0)"/>
       <use xlink:href="#DejaVuSans-30" transform="translate(127.246094 0)"/>
      </g>
     </g>
    </g>
    <g id="xtick_3">
     <g id="line2d_5">
      <path d="M 303.547718 303.64
L 303.547718 25.44
" clip-path="url(#p7ce7bae63e)" style="fill: none; stroke: #b0b0b0; stroke-opacity: 0.5; stroke-width: 0.3; stroke-linecap: square"/>
     </g>
     <g id="line2d_6">
      <g>
       <use xlink:href="#mdf8a05c976" x="303.547718" y="303.64" style="stroke: #000000; stroke-width: 0.8"/>
      </g>
     </g>
     <g id="text_3">
      <!-- 400 -->
      <g transform="translate(294.003968 318.238437) scale(0.1 -0.1)">
       <defs>
        <path id="DejaVuSans-34" d="M 2419 4116
L 825 1625
L 2419 1625
L 2419 4116
z
M 2253 4666
L 3047 4666
L 3047 1625
L 3713 1625
L 3713 1100
L 3047 1100
L 3047 0
L 2419 0
L 2419 1100
L 313 1100
L 313 1709
L 2253 4666
z
" transform="scale(0.015625)"/>
       </defs>
       <use xlink:href="#DejaVuSans-34"/>
       <use xlink:href="#DejaVuSans-30" transform="translate(63.623047 0)"/>
       <use xlink:href="#DejaVuSans-30" transform="translate(127.246094 0)"/>
      </g>
     </g>
    </g>
    <g id="xtick_4">
     <g id="line2d_7">
      <path d="M 383.536853 303.64
L 383.536853 25.44
" clip-path="url(#p7ce7bae63e)" style="fill: none; stroke: #b0b0b0; stroke-opacity: 0.5; stroke-width: 0.3; stroke-linecap: square"/>
     </g>
     <g id="line2d_8">
      <g>
       <use xlink:href="#mdf8a05c976" x="383.536853" y="303.64" style="stroke: #000000; stroke-width: 0.8"/>
      </g>
     </g>
     <g id="text_4">
      <!-- 500 -->
      <g transform="translate(373.993103 318.238437) scale(0.1 -0.1)">
       <defs>
        <path id="DejaVuSans-35" d="M 691 4666
L 3169 4666
L 3169 4134
L 1269 4134
L 1269 2991
Q 1406 3038 1543 3061
Q 1681 3084 1819 3084
Q 2600 3084 3056 2656
Q 3513 2228 3513 1497
Q 3513 744 3044 326
Q 2575 -91 1722 -91
Q 1428 -91 1123 -41
Q 819 9 494 109
L 494 744
Q 775 591 1075 516
Q 1375 441 1709 441
Q 2250 441 2565 725
Q 2881 1009 2881 1497
Q 2881 1984 2565 2268
Q 2250 2553 1709 2553
Q 1456 2553 1204 2497
Q 953 2441 691 2322
L 691 4666
z
" transform="scale(0.015625)"/>
       </defs>
       <use xlink:href="#DejaVuSans-35"/>
       <use xlink:href="#DejaVuSans-30" transform="translate(63.623047 0)"/>
       <use xlink:href="#DejaVuSans-30" transform="translate(127.246094 0)"/>
      </g>
     </g>
    </g>
    <g id="xtick_5">
     <g id="line2d_9">
      <path d="M 463.525987 303.64
L 463.525987 25.44
" clip-path="url(#p7ce7bae63e)" style="fill: none; stroke: #b0b0b0; stroke-opacity: 0.5; stroke-width: 0.3; stroke-linecap: square"/>
     </g>
     <g id="line2d_10">
      <g>
       <use xlink:href="#mdf8a05c976" x="463.525987" y="303.64" style="stroke: #000000; stroke-width: 0.8"/>
      </g>
     </g>
     <g id="text_5">
      <!-- 600 -->
      <g transform="translate(453.982237 318.238437) scale(0.1 -0.1)">
       <defs>
        <path id="DejaVuSans-36" d="M 2113 2584
Q 1688 2584 1439 2293
Q 1191 2003 1191 1497
Q 1191 994 1439 701
Q 1688 409 2113 409
Q 2538 409 2786 701
Q 3034 994 3034 1497
Q 3034 2003 2786 2293
Q 2538 2584 2113 2584
z
M 3366 4563
L 3366 3988
Q 3128 4100 2886 4159
Q 2644 4219 2406 4219
Q 1781 4219 1451 3797
Q 1122 3375 1075 2522
Q 1259 2794 1537 2939
Q 1816 3084 2150 3084
Q 2853 3084 3261 2657
Q 3669 2231 3669 1497
Q 3669 778 3244 343
Q 2819 -91 2113 -91
Q 1303 -91 875 529
Q 447 1150 447 2328
Q 447 3434 972 4092
Q 1497 4750 2381 4750
Q 2619 4750 2861 4703
Q 3103 4656 3366 4563
z
" transform="scale(0.015625)"/>
       </defs>
       <use xlink:href="#DejaVuSans-36"/>
       <use xlink:href="#DejaVuSans-30" transform="translate(63.623047 0)"/>
       <use xlink:href="#DejaVuSans-30" transform="translate(127.246094 0)"/>
      </g>
     </g>
    </g>
    <g id="text_6">
     <!-- polynomial degree -->
     <g transform="translate(240.117188 331.916562) scale(0.1 -0.1)">
      <defs>
       <path id="DejaVuSans-70" d="M 1159 525
L 1159 -1331
L 581 -1331
L 581 3500
L 1159 3500
L 1159 2969
Q 1341 3281 1617 3432
Q 1894 3584 2278 3584
Q 2916 3584 3314 3078
Q 3713 2572 3713 1747
Q 3713 922 3314 415
Q 2916 -91 2278 -91
Q 1894 -91 1617 61
Q 1341 213 1159 525
z
M 3116 1747
Q 3116 2381 2855 2742
Q 2594 3103 2138 3103
Q 1681 3103 1420 2742
Q 1159 2381 1159 1747
Q 1159 1113 1420 752
Q 1681 391 2138 391
Q 2594 391 2855 752
Q 3116 1113 3116 1747
z
" transform="scale(0.015625)"/>
       <path id="DejaVuSans-6f" d="M 1959 3097
Q 1497 3097 1228 2736
Q 959 2375 959 1747
Q 959 1119 1226 758
Q 1494 397 1959 397
Q 2419 397 2687 759
Q 2956 1122 2956 1747
Q 2956 2369 2687 2733
Q 2419 3097 1959 3097
z
M 1959 3584
Q 2709 3584 3137 3096
Q 3566 2609 3566 1747
Q 3566 888 3137 398
Q 2709 -91 1959 -91
Q 1206 -91 779 398
Q 353 888 353 1747
Q 353 2609 779 3096
Q 1206 3584 1959 3584
z
" transform="scale(0.015625)"/>
       <path id="DejaVuSans-6c" d="M 603 4863
L 1178 4863
L 1178 0
L 603 0
L 603 4863
z
" transform="scale(0.015625)"/>
       <path id="DejaVuSans-79" d="M 2059 -325
Q 1816 -950 1584 -1140
Q 1353 -1331 966 -1331
L 506 -1331
L 506 -850
L 844 -850
Q 1081 -850 1212 -737
Q 1344 -625 1503 -206
L 1606 56
L 191 3500
L 800 3500
L 1894 763
L 2988 3500
L 3597 3500
L 2059 -325
z
" transform="scale(0.015625)"/>
       <path id="DejaVuSans-6e" d="M 3513 2113
L 3513 0
L 2938 0
L 2938 2094
Q 2938 2591 2744 2837
Q 2550 3084 2163 3084
Q 1697 3084 1428 2787
Q 1159 2491 1159 1978
L 1159 0
L 581 0
L 581 3500
L 1159 3500
L 1159 2956
Q 1366 3272 1645 3428
Q 1925 3584 2291 3584
Q 2894 3584 3203 3211
Q 3513 2838 3513 2113
z
" transform="scale(0.015625)"/>
       <path id="DejaVuSans-6d" d="M 3328 2828
Q 3544 3216 3844 3400
Q 4144 3584 4550 3584
Q 5097 3584 5394 3201
Q 5691 2819 5691 2113
L 5691 0
L 5113 0
L 5113 2094
Q 5113 2597 4934 2840
Q 4756 3084 4391 3084
Q 3944 3084 3684 2787
Q 3425 2491 3425 1978
L 3425 0
L 2847 0
L 2847 2094
Q 2847 2600 2669 2842
Q 2491 3084 2119 3084
Q 1678 3084 1418 2786
Q 1159 2488 1159 1978
L 1159 0
L 581 0
L 581 3500
L 1159 3500
L 1159 2956
Q 1356 3278 1631 3431
Q 1906 3584 2284 3584
Q 2666 3584 2933 3390
Q 3200 3197 3328 2828
z
" transform="scale(0.015625)"/>
       <path id="DejaVuSans-69" d="M 603 3500
L 1178 3500
L 1178 0
L 603 0
L 603 3500
z
M 603 4863
L 1178 4863
L 1178 4134
L 603 4134
L 603 4863
z
" transform="scale(0.015625)"/>
       <path id="DejaVuSans-61" d="M 2194 1759
Q 1497 1759 1228 1600
Q 959 1441 959 1056
Q 959 750 1161 570
Q 1363 391 1709 391
Q 2188 391 2477 730
Q 2766 1069 2766 1631
L 2766 1759
L 2194 1759
z
M 3341 1997
L 3341 0
L 2766 0
L 2766 531
Q 2569 213 2275 61
Q 1981 -91 1556 -91
Q 1019 -91 701 211
Q 384 513 384 1019
Q 384 1609 779 1909
Q 1175 2209 1959 2209
L 2766 2209
L 2766 2266
Q 2766 2663 2505 2880
Q 2244 3097 1772 3097
Q 1472 3097 1187 3025
Q 903 2953 641 2809
L 641 3341
Q 956 3463 1253 3523
Q 1550 3584 1831 3584
Q 2591 3584 2966 3190
Q 3341 2797 3341 1997
z
" transform="scale(0.015625)"/>
       <path id="DejaVuSans-20" transform="scale(0.015625)"/>
       <path id="DejaVuSans-64" d="M 2906 2969
L 2906 4863
L 3481 4863
L 3481 0
L 2906 0
L 2906 525
Q 2725 213 2448 61
Q 2172 -91 1784 -91
Q 1150 -91 751 415
Q 353 922 353 1747
Q 353 2572 751 3078
Q 1150 3584 1784 3584
Q 2172 3584 2448 3432
Q 2725 3281 2906 2969
z
M 947 1747
Q 947 1113 1208 752
Q 1469 391 1925 391
Q 2381 391 2643 752
Q 2906 1113 2906 1747
Q 2906 2381 2643 2742
Q 2381 3103 1925 3103
Q 1469 3103 1208 2742
Q 947 2381 947 1747
z
" transform="scale(0.015625)"/>
       <path id="DejaVuSans-65" d="M 3597 1894
L 3597 1613
L 953 1613
Q 991 1019 1311 708
Q 1631 397 2203 397
Q 2534 397 2845 478
Q 3156 559 3463 722
L 3463 178
Q 3153 47 2828 -22
Q 2503 -91 2169 -91
Q 1331 -91 842 396
Q 353 884 353 1716
Q 353 2575 817 3079
Q 1281 3584 2069 3584
Q 2775 3584 3186 3129
Q 3597 2675 3597 1894
z
M 3022 2063
Q 3016 2534 2758 2815
Q 2500 3097 2075 3097
Q 1594 3097 1305 2825
Q 1016 2553 972 2059
L 3022 2063
z
" transform="scale(0.015625)"/>
       <path id="DejaVuSans-67" d="M 2906 1791
Q 2906 2416 2648 2759
Q 2391 3103 1925 3103
Q 1463 3103 1205 2759
Q 947 2416 947 1791
Q 947 1169 1205 825
Q 1463 481 1925 481
Q 2391 481 2648 825
Q 2906 1169 2906 1791
z
M 3481 434
Q 3481 -459 3084 -895
Q 2688 -1331 1869 -1331
Q 1566 -1331 1297 -1286
Q 1028 -1241 775 -1147
L 775 -588
Q 1028 -725 1275 -790
Q 1522 -856 1778 -856
Q 2344 -856 2625 -561
Q 2906 -266 2906 331
L 2906 616
Q 2728 306 2450 153
Q 2172 0 1784 0
Q 1141 0 747 490
Q 353 981 353 1791
Q 353 2603 747 3093
Q 1141 3584 1784 3584
Q 2172 3584 2450 3431
Q 2728 3278 2906 2969
L 2906 3500
L 3481 3500
L 3481 434
z
" transform="scale(0.015625)"/>
       <path id="DejaVuSans-72" d="M 2631 2963
Q 2534 3019 2420 3045
Q 2306 3072 2169 3072
Q 1681 3072 1420 2755
Q 1159 2438 1159 1844
L 1159 0
L 581 0
L 581 3500
L 1159 3500
L 1159 2956
Q 1341 3275 1631 3429
Q 1922 3584 2338 3584
Q 2397 3584 2469 3576
Q 2541 3569 2628 3553
L 2631 2963
z
" transform="scale(0.015625)"/>
      </defs>
      <use xlink:href="#DejaVuSans-70"/>
      <use xlink:href="#DejaVuSans-6f" transform="translate(63.476562 0)"/>
      <use xlink:href="#DejaVuSans-6c" transform="translate(124.658203 0)"/>
      <use xlink:href="#DejaVuSans-79" transform="translate(152.441406 0)"/>
      <use xlink:href="#DejaVuSans-6e" transform="translate(211.621094 0)"/>
      <use xlink:href="#DejaVuSans-6f" transform="translate(275 0)"/>
      <use xlink:href="#DejaVuSans-6d" transform="translate(336.181641 0)"/>
      <use xlink:href="#DejaVuSans-69" transform="translate(433.59375 0)"/>
      <use xlink:href="#DejaVuSans-61" transform="translate(461.376953 0)"/>
      <use xlink:href="#DejaVuSans-6c" transform="translate(522.65625 0)"/>
      <use xlink:href="#DejaVuSans-20" transform="translate(550.439453 0)"/>
      <use xlink:href="#DejaVuSans-64" transform="translate(582.226562 0)"/>
      <use xlink:href="#DejaVuSans-65" transform="translate(645.703125 0)"/>
      <use xlink:href="#DejaVuSans-67" transform="translate(707.226562 0)"/>
      <use xlink:href="#DejaVuSans-72" transform="translate(770.703125 0)"/>
      <use xlink:href="#DejaVuSans-65" transform="translate(809.566406 0)"/>
      <use xlink:href="#DejaVuSans-65" transform="translate(871.089844 0)"/>
     </g>
    </g>
   </g>
   <g id="matplotlib.axis_2">
    <g id="ytick_1">
     <g id="line2d_11">
      <path d="M 65.9 285.355108
L 507.6 285.355108
" clip-path="url(#p7ce7bae63e)" style="fill: none; stroke: #b0b0b0; stroke-opacity: 0.5; stroke-width: 0.3; stroke-linecap: square"/>
     </g>
     <g id="line2d_12">
      <defs>
       <path id="mc19e836183" d="M 0 0
L -3.5 0
" style="stroke: #000000; stroke-width: 0.8"/>
      </defs>
      <g>
       <use xlink:href="#mc19e836183" x="65.9" y="285.355108" style="stroke: #000000; stroke-width: 0.8"/>
      </g>
     </g>
     <g id="text_7">
      <!-- 10ms -->
      <g transform="translate(31.225 289.154327) scale(0.1 -0.1)">
       <defs>
        <path id="DejaVuSans-31" d="M 794 531
L 1825 531
L 1825 4091
L 703 3866
L 703 4441
L 1819 4666
L 2450 4666
L 2450 531
L 3481 531
L 3481 0
L 794 0
L 794 531
z
" transform="scale(0.015625)"/>
        <path id="DejaVuSans-73" d="M 2834 3397
L 2834 2853
Q 2591 2978 2328 3040
Q 2066 3103 1784 3103
Q 1356 3103 1142 2972
Q 928 2841 928 2578
Q 928 2378 1081 2264
Q 1234 2150 1697 2047
L 1894 2003
Q 2506 1872 2764 1633
Q 3022 1394 3022 966
Q 3022 478 2636 193
Q 2250 -91 1575 -91
Q 1294 -91 989 -36
Q 684 19 347 128
L 347 722
Q 666 556 975 473
Q 1284 391 1588 391
Q 1994 391 2212 530
Q 2431 669 2431 922
Q 2431 1156 2273 1281
Q 2116 1406 1581 1522
L 1381 1569
Q 847 1681 609 1914
Q 372 2147 372 2553
Q 372 3047 722 3315
Q 1072 3584 1716 3584
Q 2034 3584 2315 3537
Q 2597 3491 2834 3397
z
" transform="scale(0.015625)"/>
       </defs>
       <use xlink:href="#DejaVuSans-31"/>
       <use xlink:href="#DejaVuSans-30" transform="translate(63.623047 0)"/>
       <use xlink:href="#DejaVuSans-6d" transform="translate(127.246094 0)"/>
       <use xlink:href="#DejaVuSans-73" transform="translate(224.658203 0)"/>
      </g>
     </g>
    </g>
    <g id="ytick_2">
     <g id="line2d_13">
      <path d="M 65.9 189.505875
L 507.6 189.505875
" clip-path="url(#p7ce7bae63e)" style="fill: none; stroke: #b0b0b0; stroke-opacity: 0.5; stroke-width: 0.3; stroke-linecap: square"/>
     </g>
     <g id="line2d_14">
      <g>
       <use xlink:href="#mc19e836183" x="65.9" y="189.505875" style="stroke: #000000; stroke-width: 0.8"/>
      </g>
     </g>
     <g id="text_8">
      <!-- 100ms -->
      <g transform="translate(24.8625 193.305094) scale(0.1 -0.1)">
       <use xlink:href="#DejaVuSans-31"/>
       <use xlink:href="#DejaVuSans-30" transform="translate(63.623047 0)"/>
       <use xlink:href="#DejaVuSans-30" transform="translate(127.246094 0)"/>
       <use xlink:href="#DejaVuSans-6d" transform="translate(190.869141 0)"/>
       <use xlink:href="#DejaVuSans-73" transform="translate(288.28125 0)"/>
      </g>
     </g>
    </g>
    <g id="ytick_3">
     <g id="line2d_15">
      <path d="M 65.9 93.656642
L 507.6 93.656642
" clip-path="url(#p7ce7bae63e)" style="fill: none; stroke: #b0b0b0; stroke-opacity: 0.5; stroke-width: 0.3; stroke-linecap: square"/>
     </g>
     <g id="line2d_16">
      <g>
       <use xlink:href="#mc19e836183" x="65.9" y="93.656642" style="stroke: #000000; stroke-width: 0.8"/>
      </g>
     </g>
     <g id="text_9">
      <!-- 1s -->
      <g transform="translate(47.328125 97.455861) scale(0.1 -0.1)">
       <use xlink:href="#DejaVuSans-31"/>
       <use xlink:href="#DejaVuSans-73" transform="translate(63.623047 0)"/>
      </g>
     </g>
    </g>
    <g id="ytick_4">
     <g id="line2d_17">
      <path d="M 65.9 300.202342
L 507.6 300.202342
" clip-path="url(#p7ce7bae63e)" style="fill: none; stroke: #b0b0b0; stroke-opacity: 0.5; stroke-width: 0.3; stroke-linecap: square"/>
     </g>
     <g id="line2d_18">
      <defs>
       <path id="ma6e5feb59b" d="M 0 0
L -2 0
" style="stroke: #000000; stroke-width: 0.6"/>
      </defs>
      <g>
       <use xlink:href="#ma6e5feb59b" x="65.9" y="300.202342" style="stroke: #000000; stroke-width: 0.6"/>
      </g>
     </g>
    </g>
    <g id="ytick_5">
     <g id="line2d_19">
      <path d="M 65.9 294.643859
L 507.6 294.643859
" clip-path="url(#p7ce7bae63e)" style="fill: none; stroke: #b0b0b0; stroke-opacity: 0.5; stroke-width: 0.3; stroke-linecap: square"/>
     </g>
     <g id="line2d_20">
      <g>
       <use xlink:href="#ma6e5feb59b" x="65.9" y="294.643859" style="stroke: #000000; stroke-width: 0.6"/>
      </g>
     </g>
    </g>
    <g id="ytick_6">
     <g id="line2d_21">
      <path d="M 65.9 289.740929
L 507.6 289.740929
" clip-path="url(#p7ce7bae63e)" style="fill: none; stroke: #b0b0b0; stroke-opacity: 0.5; stroke-width: 0.3; stroke-linecap: square"/>
     </g>
     <g id="line2d_22">
      <g>
       <use xlink:href="#ma6e5feb59b" x="65.9" y="289.740929" style="stroke: #000000; stroke-width: 0.6"/>
      </g>
     </g>
    </g>
    <g id="ytick_7">
     <g id="line2d_23">
      <path d="M 65.9 256.501614
L 507.6 256.501614
" clip-path="url(#p7ce7bae63e)" style="fill: none; stroke: #b0b0b0; stroke-opacity: 0.5; stroke-width: 0.3; stroke-linecap: square"/>
     </g>
     <g id="line2d_24">
      <g>
       <use xlink:href="#ma6e5feb59b" x="65.9" y="256.501614" style="stroke: #000000; stroke-width: 0.6"/>
      </g>
     </g>
    </g>
    <g id="ytick_8">
     <g id="line2d_25">
      <path d="M 65.9 239.623402
L 507.6 239.623402
" clip-path="url(#p7ce7bae63e)" style="fill: none; stroke: #b0b0b0; stroke-opacity: 0.5; stroke-width: 0.3; stroke-linecap: square"/>
     </g>
     <g id="line2d_26">
      <g>
       <use xlink:href="#ma6e5feb59b" x="65.9" y="239.623402" style="stroke: #000000; stroke-width: 0.6"/>
      </g>
     </g>
    </g>
    <g id="ytick_9">
     <g id="line2d_27">
      <path d="M 65.9 227.64812
L 507.6 227.64812
" clip-path="url(#p7ce7bae63e)" style="fill: none; stroke: #b0b0b0; stroke-opacity: 0.5; stroke-width: 0.3; stroke-linecap: square"/>
     </g>
     <g id="line2d_28">
      <g>
       <use xlink:href="#ma6e5feb59b" x="65.9" y="227.64812" style="stroke: #000000; stroke-width: 0.6"/>
      </g>
     </g>
    </g>
    <g id="ytick_10">
     <g id="line2d_29">
      <path d="M 65.9 218.359369
L 507.6 218.359369
" clip-path="url(#p7ce7bae63e)" style="fill: none; stroke: #b0b0b0; stroke-opacity: 0.5; stroke-width: 0.3; stroke-linecap: square"/>
     </g>
     <g id="line2d_30">
      <g>
       <use xlink:href="#ma6e5feb59b" x="65.9" y="218.359369" style="stroke: #000000; stroke-width: 0.6"/>
      </g>
     </g>
    </g>
    <g id="ytick_11">
     <g id="line2d_31">
      <path d="M 65.9 210.769908
L 507.6 210.769908
" clip-path="url(#p7ce7bae63e)" style="fill: none; stroke: #b0b0b0; stroke-opacity: 0.5; stroke-width: 0.3; stroke-linecap: square"/>
     </g>
     <g id="line2d_32">
      <g>
       <use xlink:href="#ma6e5feb59b" x="65.9" y="210.769908" style="stroke: #000000; stroke-width: 0.6"/>
      </g>
     </g>
    </g>
    <g id="ytick_12">
     <g id="line2d_33">
      <path d="M 65.9 204.353109
L 507.6 204.353109
" clip-path="url(#p7ce7bae63e)" style="fill: none; stroke: #b0b0b0; stroke-opacity: 0.5; stroke-width: 0.3; stroke-linecap: square"/>
     </g>
     <g id="line2d_34">
      <g>
       <use xlink:href="#ma6e5feb59b" x="65.9" y="204.353109" style="stroke: #000000; stroke-width: 0.6"/>
      </g>
     </g>
    </g>
    <g id="ytick_13">
     <g id="line2d_35">
      <path d="M 65.9 198.794625
L 507.6 198.794625
" clip-path="url(#p7ce7bae63e)" style="fill: none; stroke: #b0b0b0; stroke-opacity: 0.5; stroke-width: 0.3; stroke-linecap: square"/>
     </g>
     <g id="line2d_36">
      <g>
       <use xlink:href="#ma6e5feb59b" x="65.9" y="198.794625" style="stroke: #000000; stroke-width: 0.6"/>
      </g>
     </g>
    </g>
    <g id="ytick_14">
     <g id="line2d_37">
      <path d="M 65.9 193.891695
L 507.6 193.891695
" clip-path="url(#p7ce7bae63e)" style="fill: none; stroke: #b0b0b0; stroke-opacity: 0.5; stroke-width: 0.3; stroke-linecap: square"/>
     </g>
     <g id="line2d_38">
      <g>
       <use xlink:href="#ma6e5feb59b" x="65.9" y="193.891695" style="stroke: #000000; stroke-width: 0.6"/>
      </g>
     </g>
    </g>
    <g id="ytick_15">
     <g id="line2d_39">
      <path d="M 65.9 160.652381
L 507.6 160.652381
" clip-path="url(#p7ce7bae63e)" style="fill: none; stroke: #b0b0b0; stroke-opacity: 0.5; stroke-width: 0.3; stroke-linecap: square"/>
     </g>
     <g id="line2d_40">
      <g>
       <use xlink:href="#ma6e5feb59b" x="65.9" y="160.652381" style="stroke: #000000; stroke-width: 0.6"/>
      </g>
     </g>
    </g>
    <g id="ytick_16">
     <g id="line2d_41">
      <path d="M 65.9 143.774169
L 507.6 143.774169
" clip-path="url(#p7ce7bae63e)" style="fill: none; stroke: #b0b0b0; stroke-opacity: 0.5; stroke-width: 0.3; stroke-linecap: square"/>
     </g>
     <g id="line2d_42">
      <g>
       <use xlink:href="#ma6e5feb59b" x="65.9" y="143.774169" style="stroke: #000000; stroke-width: 0.6"/>
      </g>
     </g>
    </g>
    <g id="ytick_17">
     <g id="line2d_43">
      <path d="M 65.9 131.798887
L 507.6 131.798887
" clip-path="url(#p7ce7bae63e)" style="fill: none; stroke: #b0b0b0; stroke-opacity: 0.5; stroke-width: 0.3; stroke-linecap: square"/>
     </g>
     <g id="line2d_44">
      <g>
       <use xlink:href="#ma6e5feb59b" x="65.9" y="131.798887" style="stroke: #000000; stroke-width: 0.6"/>
      </g>
     </g>
    </g>
    <g id="ytick_18">
     <g id="line2d_45">
      <path d="M 65.9 122.510136
L 507.6 122.510136
" clip-path="url(#p7ce7bae63e)" style="fill: none; stroke: #b0b0b0; stroke-opacity: 0.5; stroke-width: 0.3; stroke-linecap: square"/>
     </g>
     <g id="line2d_46">
      <g>
       <use xlink:href="#ma6e5feb59b" x="65.9" y="122.510136" style="stroke: #000000; stroke-width: 0.6"/>
      </g>
     </g>
    </g>
    <g id="ytick_19">
     <g id="line2d_47">
      <path d="M 65.9 114.920674
L 507.6 114.920674
" clip-path="url(#p7ce7bae63e)" style="fill: none; stroke: #b0b0b0; stroke-opacity: 0.5; stroke-width: 0.3; stroke-linecap: square"/>
     </g>
     <g id="line2d_48">
      <g>
       <use xlink:href="#ma6e5feb59b" x="65.9" y="114.920674" style="stroke: #000000; stroke-width: 0.6"/>
      </g>
     </g>
    </g>
    <g id="ytick_20">
     <g id="line2d_49">
      <path d="M 65.9 108.503876
L 507.6 108.503876
" clip-path="url(#p7ce7bae63e)" style="fill: none; stroke: #b0b0b0; stroke-opacity: 0.5; stroke-width: 0.3; stroke-linecap: square"/>
     </g>
     <g id="line2d_50">
      <g>
       <use xlink:href="#ma6e5feb59b" x="65.9" y="108.503876" style="stroke: #000000; stroke-width: 0.6"/>
      </g>
     </g>
    </g>
    <g id="ytick_21">
     <g id="line2d_51">
      <path d="M 65.9 102.945392
L 507.6 102.945392
" clip-path="url(#p7ce7bae63e)" style="fill: none; stroke: #b0b0b0; stroke-opacity: 0.5; stroke-width: 0.3; stroke-linecap: square"/>
     </g>
     <g id="line2d_52">
      <g>
       <use xlink:href="#ma6e5feb59b" x="65.9" y="102.945392" style="stroke: #000000; stroke-width: 0.6"/>
      </g>
     </g>
    </g>
    <g id="ytick_22">
     <g id="line2d_53">
      <path d="M 65.9 98.042462
L 507.6 98.042462
" clip-path="url(#p7ce7bae63e)" style="fill: none; stroke: #b0b0b0; stroke-opacity: 0.5; stroke-width: 0.3; stroke-linecap: square"/>
     </g>
     <g id="line2d_54">
      <g>
       <use xlink:href="#ma6e5feb59b" x="65.9" y="98.042462" style="stroke: #000000; stroke-width: 0.6"/>
      </g>
     </g>
    </g>
    <g id="ytick_23">
     <g id="line2d_55">
      <path d="M 65.9 64.803148
L 507.6 64.803148
" clip-path="url(#p7ce7bae63e)" style="fill: none; stroke: #b0b0b0; stroke-opacity: 0.5; stroke-width: 0.3; stroke-linecap: square"/>
     </g>
     <g id="line2d_56">
      <g>
       <use xlink:href="#ma6e5feb59b" x="65.9" y="64.803148" style="stroke: #000000; stroke-width: 0.6"/>
      </g>
     </g>
    </g>
    <g id="ytick_24">
     <g id="line2d_57">
      <path d="M 65.9 47.924936
L 507.6 47.924936
" clip-path="url(#p7ce7bae63e)" style="fill: none; stroke: #b0b0b0; stroke-opacity: 0.5; stroke-width: 0.3; stroke-linecap: square"/>
     </g>
     <g id="line2d_58">
      <g>
       <use xlink:href="#ma6e5feb59b" x="65.9" y="47.924936" style="stroke: #000000; stroke-width: 0.6"/>
      </g>
     </g>
    </g>
    <g id="ytick_25">
     <g id="line2d_59">
      <path d="M 65.9 35.949653
L 507.6 35.949653
" clip-path="url(#p7ce7bae63e)" style="fill: none; stroke: #b0b0b0; stroke-opacity: 0.5; stroke-width: 0.3; stroke-linecap: square"/>
     </g>
     <g id="line2d_60">
      <g>
       <use xlink:href="#ma6e5feb59b" x="65.9" y="35.949653" style="stroke: #000000; stroke-width: 0.6"/>
      </g>
     </g>
    </g>
    <g id="ytick_26">
     <g id="line2d_61">
      <path d="M 65.9 26.660903
L 507.6 26.660903
" clip-path="url(#p7ce7bae63e)" style="fill: none; stroke: #b0b0b0; stroke-opacity: 0.5; stroke-width: 0.3; stroke-linecap: square"/>
     </g>
     <g id="line2d_62">
      <g>
       <use xlink:href="#ma6e5feb59b" x="65.9" y="26.660903" style="stroke: #000000; stroke-width: 0.6"/>
      </g>
     </g>
    </g>
    <g id="text_10">
     <!-- median wall-clock -->
     <g transform="translate(18.782812 209.449375) rotate(-90) scale(0.1 -0.1)">
      <defs>
       <path id="DejaVuSans-77" d="M 269 3500
L 844 3500
L 1563 769
L 2278 3500
L 2956 3500
L 3675 769
L 4391 3500
L 4966 3500
L 4050 0
L 3372 0
L 2619 2869
L 1863 0
L 1184 0
L 269 3500
z
" transform="scale(0.015625)"/>
       <path id="DejaVuSans-2d" d="M 313 2009
L 1997 2009
L 1997 1497
L 313 1497
L 313 2009
z
" transform="scale(0.015625)"/>
       <path id="DejaVuSans-63" d="M 3122 3366
L 3122 2828
Q 2878 2963 2633 3030
Q 2388 3097 2138 3097
Q 1578 3097 1268 2742
Q 959 2388 959 1747
Q 959 1106 1268 751
Q 1578 397 2138 397
Q 2388 397 2633 464
Q 2878 531 3122 666
L 3122 134
Q 2881 22 2623 -34
Q 2366 -91 2075 -91
Q 1284 -91 818 406
Q 353 903 353 1747
Q 353 2603 823 3093
Q 1294 3584 2113 3584
Q 2378 3584 2631 3529
Q 2884 3475 3122 3366
z
" transform="scale(0.015625)"/>
       <path id="DejaVuSans-6b" d="M 581 4863
L 1159 4863
L 1159 1991
L 2875 3500
L 3609 3500
L 1753 1863
L 3688 0
L 2938 0
L 1159 1709
L 1159 0
L 581 0
L 581 4863
z
" transform="scale(0.015625)"/>
      </defs>
      <use xlink:href="#DejaVuSans-6d"/>
      <use xlink:href="#DejaVuSans-65" transform="translate(97.412109 0)"/>
      <use xlink:href="#DejaVuSans-64" transform="translate(158.935547 0)"/>
      <use xlink:href="#DejaVuSans-69" transform="translate(222.412109 0)"/>
      <use xlink:href="#DejaVuSans-61" transform="translate(250.195312 0)"/>
      <use xlink:href="#DejaVuSans-6e" transform="translate(311.474609 0)"/>
      <use xlink:href="#DejaVuSans-20" transform="translate(374.853516 0)"/>
      <use xlink:href="#DejaVuSans-77" transform="translate(406.640625 0)"/>
      <use xlink:href="#DejaVuSans-61" transform="translate(488.427734 0)"/>
      <use xlink:href="#DejaVuSans-6c" transform="translate(549.707031 0)"/>
      <use xlink:href="#DejaVuSans-6c" transform="translate(577.490234 0)"/>
      <use xlink:href="#DejaVuSans-2d" transform="translate(605.273438 0)"/>
      <use xlink:href="#DejaVuSans-63" transform="translate(641.357422 0)"/>
      <use xlink:href="#DejaVuSans-6c" transform="translate(696.337891 0)"/>
      <use xlink:href="#DejaVuSans-6f" transform="translate(724.121094 0)"/>
      <use xlink:href="#DejaVuSans-63" transform="translate(785.302734 0)"/>
      <use xlink:href="#DejaVuSans-6b" transform="translate(840.283203 0)"/>
     </g>
    </g>
   </g>
   <g id="line2d_63">
    <path d="M 85.977273 179.436427
L 89.176838 290.994545
L 135.570536 239.288443
L 137.170319 87.996994
L 188.363365 74.005277
L 188.363365 38.085455
L 264.353042 156.437014
L 290.749457 135.672461
L 487.522727 74.070353
" clip-path="url(#p7ce7bae63e)" style="fill: none; stroke: #9467bd; stroke-linecap: square"/>
    <defs>
     <path id="meef3cfac8d" d="M 0 -2
L -2 2
L 2 2
z
" style="stroke: #9467bd; stroke-linejoin: miter"/>
    </defs>
    <g clip-path="url(#p7ce7bae63e)">
     <use xlink:href="#meef3cfac8d" x="85.977273" y="179.436427" style="fill: #9467bd; stroke: #9467bd; stroke-linejoin: miter"/>
     <use xlink:href="#meef3cfac8d" x="89.176838" y="290.994545" style="fill: #9467bd; stroke: #9467bd; stroke-linejoin: miter"/>
     <use xlink:href="#meef3cfac8d" x="135.570536" y="239.288443" style="fill: #9467bd; stroke: #9467bd; stroke-linejoin: miter"/>
     <use xlink:href="#meef3cfac8d" x="137.170319" y="87.996994" style="fill: #9467bd; stroke: #9467bd; stroke-linejoin: miter"/>
     <use xlink:href="#meef3cfac8d" x="188.363365" y="74.005277" style="fill: #9467bd; stroke: #9467bd; stroke-linejoin: miter"/>
     <use xlink:href="#meef3cfac8d" x="188.363365" y="38.085455" style="fill: #9467bd; stroke: #9467bd; stroke-linejoin: miter"/>
     <use xlink:href="#meef3cfac8d" x="264.353042" y="156.437014" style="fill: #9467bd; stroke: #9467bd; stroke-linejoin: miter"/>
     <use xlink:href="#meef3cfac8d" x="290.749457" y="135.672461" style="fill: #9467bd; stroke: #9467bd; stroke-linejoin: miter"/>
     <use xlink:href="#meef3cfac8d" x="487.522727" y="74.070353" style="fill: #9467bd; stroke: #9467bd; stroke-linejoin: miter"/>
    </g>
   </g>
   <g id="line2d_64">
    <path d="M 85.977273 194.898855
L 89.176838 258.691687
L 135.570536 233.219986
L 137.170319 143.890528
L 188.363365 95.104977
L 188.363365 85.281159
L 264.353042 175.405256
L 290.749457 147.225777
L 487.522727 107.868395
" clip-path="url(#p7ce7bae63e)" style="fill: none; stroke: #8c564b; stroke-linecap: square"/>
    <defs>
     <path id="m975a81c4ea" d="M -0 2
L 2 -2
L -2 -2
z
" style="stroke: #8c564b; stroke-linejoin: miter"/>
    </defs>
    <g clip-path="url(#p7ce7bae63e)">
     <use xlink:href="#m975a81c4ea" x="85.977273" y="194.898855" style="fill: #8c564b; stroke: #8c564b; stroke-linejoin: miter"/>
     <use xlink:href="#m975a81c4ea" x="89.176838" y="258.691687" style="fill: #8c564b; stroke: #8c564b; stroke-linejoin: miter"/>
     <use xlink:href="#m975a81c4ea" x="135.570536" y="233.219986" style="fill: #8c564b; stroke: #8c564b; stroke-linejoin: miter"/>
     <use xlink:href="#m975a81c4ea" x="137.170319" y="143.890528" style="fill: #8c564b; stroke: #8c564b; stroke-linejoin: miter"/>
     <use xlink:href="#m975a81c4ea" x="188.363365" y="95.104977" style="fill: #8c564b; stroke: #8c564b; stroke-linejoin: miter"/>
     <use xlink:href="#m975a81c4ea" x="188.363365" y="85.281159" style="fill: #8c564b; stroke: #8c564b; stroke-linejoin: miter"/>
     <use xlink:href="#m975a81c4ea" x="264.353042" y="175.405256" style="fill: #8c564b; stroke: #8c564b; stroke-linejoin: miter"/>
     <use xlink:href="#m975a81c4ea" x="290.749457" y="147.225777" style="fill: #8c564b; stroke: #8c564b; stroke-linejoin: miter"/>
     <use xlink:href="#m975a81c4ea" x="487.522727" y="107.868395" style="fill: #8c564b; stroke: #8c564b; stroke-linejoin: miter"/>
    </g>
   </g>
   <g id="patch_3">
    <path d="M 65.9 303.64
L 65.9 25.44
" style="fill: none; stroke: #000000; stroke-width: 0.8; stroke-linejoin: miter; stroke-linecap: square"/>
   </g>
   <g id="patch_4">
    <path d="M 507.6 303.64
L 507.6 25.44
" style="fill: none; stroke: #000000; stroke-width: 0.8; stroke-linejoin: miter; stroke-linecap: square"/>
   </g>
   <g id="patch_5">
    <path d="M 65.9 303.64
L 507.6 303.64
" style="fill: none; stroke: #000000; stroke-width: 0.8; stroke-linejoin: miter; stroke-linecap: square"/>
   </g>
   <g id="patch_6">
    <path d="M 65.9 25.44
L 507.6 25.44
" style="fill: none; stroke: #000000; stroke-width: 0.8; stroke-linejoin: miter; stroke-linecap: square"/>
   </g>
   <g id="text_11">
    <!-- Runtime vs degree - - hoeij-zimmermann -->
    <g transform="translate(165.683125 19.44) scale(0.12 -0.12)">
     <defs>
      <path id="DejaVuSans-52" d="M 2841 2188
Q 3044 2119 3236 1894
Q 3428 1669 3622 1275
L 4263 0
L 3584 0
L 2988 1197
Q 2756 1666 2539 1819
Q 2322 1972 1947 1972
L 1259 1972
L 1259 0
L 628 0
L 628 4666
L 2053 4666
Q 2853 4666 3247 4331
Q 3641 3997 3641 3322
Q 3641 2881 3436 2590
Q 3231 2300 2841 2188
z
M 1259 4147
L 1259 2491
L 2053 2491
Q 2509 2491 2742 2702
Q 2975 2913 2975 3322
Q 2975 3731 2742 3939
Q 2509 4147 2053 4147
L 1259 4147
z
" transform="scale(0.015625)"/>
      <path id="DejaVuSans-75" d="M 544 1381
L 544 3500
L 1119 3500
L 1119 1403
Q 1119 906 1312 657
Q 1506 409 1894 409
Q 2359 409 2629 706
Q 2900 1003 2900 1516
L 2900 3500
L 3475 3500
L 3475 0
L 2900 0
L 2900 538
Q 2691 219 2414 64
Q 2138 -91 1772 -91
Q 1169 -91 856 284
Q 544 659 544 1381
z
M 1991 3584
L 1991 3584
z
" transform="scale(0.015625)"/>
      <path id="DejaVuSans-74" d="M 1172 4494
L 1172 3500
L 2356 3500
L 2356 3053
L 1172 3053
L 1172 1153
Q 1172 725 1289 603
Q 1406 481 1766 481
L 2356 481
L 2356 0
L 1766 0
Q 1100 0 847 248
Q 594 497 594 1153
L 594 3053
L 172 3053
L 172 3500
L 594 3500
L 594 4494
L 1172 4494
z
" transform="scale(0.015625)"/>
      <path id="DejaVuSans-76" d="M 191 3500
L 800 3500
L 1894 563
L 2988 3500
L 3597 3500
L 2284 0
L 1503 0
L 191 3500
z
" transform="scale(0.015625)"/>
      <path id="DejaVuSans-68" d="M 3513 2113
L 3513 0
L 2938 0
L 2938 2094
Q 2938 2591 2744 2837
Q 2550 3084 2163 3084
Q 1697 3084 1428 2787
Q 1159 2491 1159 1978
L 1159 0
L 581 0
L 581 4863
L 1159 4863
L 1159 2956
Q 1366 3272 1645 3428
Q 1925 3584 2291 3584
Q 2894 3584 3203 3211
Q 3513 2838 3513 2113
z
" transform="scale(0.015625)"/>
      <path id="DejaVuSans-6a" d="M 603 3500
L 1178 3500
L 1178 -63
Q 1178 -731 923 -1031
Q 669 -1331 103 -1331
L -116 -1331
L -116 -844
L 38 -844
Q 366 -844 484 -692
Q 603 -541 603 -63
L 603 3500
z
M 603 4863
L 1178 4863
L 1178 4134
L 603 4134
L 603 4863
z
" transform="scale(0.015625)"/>
      <path id="DejaVuSans-7a" d="M 353 3500
L 3084 3500
L 3084 2975
L 922 459
L 3084 459
L 3084 0
L 275 0
L 275 525
L 2438 3041
L 353 3041
L 353 3500
z
" transform="scale(0.015625)"/>
     </defs>
     <use xlink:href="#DejaVuSans-52"/>
     <use xlink:href="#DejaVuSans-75" transform="translate(64.982422 0)"/>
     <use xlink:href="#DejaVuSans-6e" transform="translate(128.361328 0)"/>
     <use xlink:href="#DejaVuSans-74" transform="translate(191.740234 0)"/>
     <use xlink:href="#DejaVuSans-69" transform="translate(230.949219 0)"/>
     <use xlink:href="#DejaVuSans-6d" transform="translate(258.732422 0)"/>
     <use xlink:href="#DejaVuSans-65" transform="translate(356.144531 0)"/>
     <use xlink:href="#DejaVuSans-20" transform="translate(417.667969 0)"/>
     <use xlink:href="#DejaVuSans-76" transform="translate(449.455078 0)"/>
     <use xlink:href="#DejaVuSans-73" transform="translate(508.634766 0)"/>
     <use xlink:href="#DejaVuSans-20" transform="translate(560.734375 0)"/>
     <use xlink:href="#DejaVuSans-64" transform="translate(592.521484 0)"/>
     <use xlink:href="#DejaVuSans-65" transform="translate(655.998047 0)"/>
     <use xlink:href="#DejaVuSans-67" transform="translate(717.521484 0)"/>
     <use xlink:href="#DejaVuSans-72" transform="translate(780.998047 0)"/>
     <use xlink:href="#DejaVuSans-65" transform="translate(819.861328 0)"/>
     <use xlink:href="#DejaVuSans-65" transform="translate(881.384766 0)"/>
     <use xlink:href="#DejaVuSans-20" transform="translate(942.908203 0)"/>
     <use xlink:href="#DejaVuSans-2d" transform="translate(974.695312 0)"/>
     <use xlink:href="#DejaVuSans-2d" transform="translate(1010.779297 0)"/>
     <use xlink:href="#DejaVuSans-20" transform="translate(1046.863281 0)"/>
     <use xlink:href="#DejaVuSans-68" transform="translate(1078.650391 0)"/>
     <use xlink:href="#DejaVuSans-6f" transform="translate(1142.029297 0)"/>
     <use xlink:href="#DejaVuSans-65" transform="translate(1203.210938 0)"/>
     <use xlink:href="#DejaVuSans-69" transform="translate(1264.734375 0)"/>
     <use xlink:href="#DejaVuSans-6a" transform="translate(1292.517578 0)"/>
     <use xlink:href="#DejaVuSans-2d" transform="translate(1320.300781 0)"/>
     <use xlink:href="#DejaVuSans-7a" transform="translate(1356.384766 0)"/>
     <use xlink:href="#DejaVuSans-69" transform="translate(1408.875 0)"/>
     <use xlink:href="#DejaVuSans-6d" transform="translate(1436.658203 0)"/>
     <use xlink:href="#DejaVuSans-6d" transform="translate(1534.070312 0)"/>
     <use xlink:href="#DejaVuSans-65" transform="translate(1631.482422 0)"/>
     <use xlink:href="#DejaVuSans-72" transform="translate(1693.005859 0)"/>
     <use xlink:href="#DejaVuSans-6d" transform="translate(1732.369141 0)"/>
     <use xlink:href="#DejaVuSans-61" transform="translate(1829.78125 0)"/>
     <use xlink:href="#DejaVuSans-6e" transform="translate(1891.060547 0)"/>
     <use xlink:href="#DejaVuSans-6e" transform="translate(1954.439453 0)"/>
    </g>
   </g>
   <g id="legend_1">
    <g id="patch_7">
     <path d="M 71.5 55.325
L 119.39 55.325
Q 120.99 55.325 120.99 53.725
L 120.99 31.04
Q 120.99 29.44 119.39 29.44
L 71.5 29.44
Q 69.9 29.44 69.9 31.04
L 69.9 53.725
Q 69.9 55.325 71.5 55.325
z
" style="fill: #ffffff; opacity: 0.8; stroke: #cccccc; stroke-linejoin: miter"/>
    </g>
    <g id="line2d_65">
     <path d="M 73.1 35.91875
L 81.1 35.91875
L 89.1 35.91875
" style="fill: none; stroke: #9467bd; stroke-linecap: square"/>
     <g>
      <use xlink:href="#meef3cfac8d" x="81.1" y="35.91875" style="fill: #9467bd; stroke: #9467bd; stroke-linejoin: miter"/>
     </g>
    </g>
    <g id="text_12">
     <!-- FLINT -->
     <g transform="translate(95.5 38.71875) scale(0.08 -0.08)">
      <defs>
       <path id="DejaVuSans-46" d="M 628 4666
L 3309 4666
L 3309 4134
L 1259 4134
L 1259 2759
L 3109 2759
L 3109 2228
L 1259 2228
L 1259 0
L 628 0
L 628 4666
z
" transform="scale(0.015625)"/>
       <path id="DejaVuSans-4c" d="M 628 4666
L 1259 4666
L 1259 531
L 3531 531
L 3531 0
L 628 0
L 628 4666
z
" transform="scale(0.015625)"/>
       <path id="DejaVuSans-49" d="M 628 4666
L 1259 4666
L 1259 0
L 628 0
L 628 4666
z
" transform="scale(0.015625)"/>
       <path id="DejaVuSans-4e" d="M 628 4666
L 1478 4666
L 3547 763
L 3547 4666
L 4159 4666
L 4159 0
L 3309 0
L 1241 3903
L 1241 0
L 628 0
L 628 4666
z
" transform="scale(0.015625)"/>
       <path id="DejaVuSans-54" d="M -19 4666
L 3928 4666
L 3928 4134
L 2272 4134
L 2272 0
L 1638 0
L 1638 4134
L -19 4134
L -19 4666
z
" transform="scale(0.015625)"/>
      </defs>
      <use xlink:href="#DejaVuSans-46"/>
      <use xlink:href="#DejaVuSans-4c" transform="translate(57.519531 0)"/>
      <use xlink:href="#DejaVuSans-49" transform="translate(113.232422 0)"/>
      <use xlink:href="#DejaVuSans-4e" transform="translate(142.724609 0)"/>
      <use xlink:href="#DejaVuSans-54" transform="translate(217.529297 0)"/>
     </g>
    </g>
    <g id="line2d_66">
     <path d="M 73.1 47.66125
L 81.1 47.66125
L 89.1 47.66125
" style="fill: none; stroke: #8c564b; stroke-linecap: square"/>
     <g>
      <use xlink:href="#m975a81c4ea" x="81.1" y="47.66125" style="fill: #8c564b; stroke: #8c564b; stroke-linejoin: miter"/>
     </g>
    </g>
    <g id="text_13">
     <!-- NTL -->
     <g transform="translate(95.5 50.46125) scale(0.08 -0.08)">
      <use xlink:href="#DejaVuSans-4e"/>
      <use xlink:href="#DejaVuSans-54" transform="translate(74.804688 0)"/>
      <use xlink:href="#DejaVuSans-4c" transform="translate(135.888672 0)"/>
     </g>
    </g>
   </g>
  </g>
  <g id="text_14">
   <!-- cutoff 10.0s; source hexbz-factor-sweep-cc203779-carica.json; declines and timeouts count as unsolved -->
   <g style="fill: #555555" transform="translate(76.557969 343.872) scale(0.07 -0.07)">
    <defs>
     <path id="DejaVuSans-66" d="M 2375 4863
L 2375 4384
L 1825 4384
Q 1516 4384 1395 4259
Q 1275 4134 1275 3809
L 1275 3500
L 2222 3500
L 2222 3053
L 1275 3053
L 1275 0
L 697 0
L 697 3053
L 147 3053
L 147 3500
L 697 3500
L 697 3744
Q 697 4328 969 4595
Q 1241 4863 1831 4863
L 2375 4863
z
" transform="scale(0.015625)"/>
     <path id="DejaVuSans-2e" d="M 684 794
L 1344 794
L 1344 0
L 684 0
L 684 794
z
" transform="scale(0.015625)"/>
     <path id="DejaVuSans-3b" d="M 750 3309
L 1409 3309
L 1409 2516
L 750 2516
L 750 3309
z
M 750 794
L 1409 794
L 1409 256
L 897 -744
L 494 -744
L 750 256
L 750 794
z
" transform="scale(0.015625)"/>
     <path id="DejaVuSans-78" d="M 3513 3500
L 2247 1797
L 3578 0
L 2900 0
L 1881 1375
L 863 0
L 184 0
L 1544 1831
L 300 3500
L 978 3500
L 1906 2253
L 2834 3500
L 3513 3500
z
" transform="scale(0.015625)"/>
     <path id="DejaVuSans-62" d="M 3116 1747
Q 3116 2381 2855 2742
Q 2594 3103 2138 3103
Q 1681 3103 1420 2742
Q 1159 2381 1159 1747
Q 1159 1113 1420 752
Q 1681 391 2138 391
Q 2594 391 2855 752
Q 3116 1113 3116 1747
z
M 1159 2969
Q 1341 3281 1617 3432
Q 1894 3584 2278 3584
Q 2916 3584 3314 3078
Q 3713 2572 3713 1747
Q 3713 922 3314 415
Q 2916 -91 2278 -91
Q 1894 -91 1617 61
Q 1341 213 1159 525
L 1159 0
L 581 0
L 581 4863
L 1159 4863
L 1159 2969
z
" transform="scale(0.015625)"/>
     <path id="DejaVuSans-37" d="M 525 4666
L 3525 4666
L 3525 4397
L 1831 0
L 1172 0
L 2766 4134
L 525 4134
L 525 4666
z
" transform="scale(0.015625)"/>
     <path id="DejaVuSans-39" d="M 703 97
L 703 672
Q 941 559 1184 500
Q 1428 441 1663 441
Q 2288 441 2617 861
Q 2947 1281 2994 2138
Q 2813 1869 2534 1725
Q 2256 1581 1919 1581
Q 1219 1581 811 2004
Q 403 2428 403 3163
Q 403 3881 828 4315
Q 1253 4750 1959 4750
Q 2769 4750 3195 4129
Q 3622 3509 3622 2328
Q 3622 1225 3098 567
Q 2575 -91 1691 -91
Q 1453 -91 1209 -44
Q 966 3 703 97
z
M 1959 2075
Q 2384 2075 2632 2365
Q 2881 2656 2881 3163
Q 2881 3666 2632 3958
Q 2384 4250 1959 4250
Q 1534 4250 1286 3958
Q 1038 3666 1038 3163
Q 1038 2656 1286 2365
Q 1534 2075 1959 2075
z
" transform="scale(0.015625)"/>
    </defs>
    <use xlink:href="#DejaVuSans-63"/>
    <use xlink:href="#DejaVuSans-75" transform="translate(54.980469 0)"/>
    <use xlink:href="#DejaVuSans-74" transform="translate(118.359375 0)"/>
    <use xlink:href="#DejaVuSans-6f" transform="translate(157.568359 0)"/>
    <use xlink:href="#DejaVuSans-66" transform="translate(218.75 0)"/>
    <use xlink:href="#DejaVuSans-66" transform="translate(253.955078 0)"/>
    <use xlink:href="#DejaVuSans-20" transform="translate(289.160156 0)"/>
    <use xlink:href="#DejaVuSans-31" transform="translate(320.947266 0)"/>
    <use xlink:href="#DejaVuSans-30" transform="translate(384.570312 0)"/>
    <use xlink:href="#DejaVuSans-2e" transform="translate(448.193359 0)"/>
    <use xlink:href="#DejaVuSans-30" transform="translate(479.980469 0)"/>
    <use xlink:href="#DejaVuSans-73" transform="translate(543.603516 0)"/>
    <use xlink:href="#DejaVuSans-3b" transform="translate(595.703125 0)"/>
    <use xlink:href="#DejaVuSans-20" transform="translate(629.394531 0)"/>
    <use xlink:href="#DejaVuSans-73" transform="translate(661.181641 0)"/>
    <use xlink:href="#DejaVuSans-6f" transform="translate(713.28125 0)"/>
    <use xlink:href="#DejaVuSans-75" transform="translate(774.462891 0)"/>
    <use xlink:href="#DejaVuSans-72" transform="translate(837.841797 0)"/>
    <use xlink:href="#DejaVuSans-63" transform="translate(876.705078 0)"/>
    <use xlink:href="#DejaVuSans-65" transform="translate(931.685547 0)"/>
    <use xlink:href="#DejaVuSans-20" transform="translate(993.208984 0)"/>
    <use xlink:href="#DejaVuSans-68" transform="translate(1024.996094 0)"/>
    <use xlink:href="#DejaVuSans-65" transform="translate(1088.375 0)"/>
    <use xlink:href="#DejaVuSans-78" transform="translate(1148.148438 0)"/>
    <use xlink:href="#DejaVuSans-62" transform="translate(1207.328125 0)"/>
    <use xlink:href="#DejaVuSans-7a" transform="translate(1270.804688 0)"/>
    <use xlink:href="#DejaVuSans-2d" transform="translate(1323.294922 0)"/>
    <use xlink:href="#DejaVuSans-66" transform="translate(1359.378906 0)"/>
    <use xlink:href="#DejaVuSans-61" transform="translate(1394.583984 0)"/>
    <use xlink:href="#DejaVuSans-63" transform="translate(1455.863281 0)"/>
    <use xlink:href="#DejaVuSans-74" transform="translate(1510.84375 0)"/>
    <use xlink:href="#DejaVuSans-6f" transform="translate(1550.052734 0)"/>
    <use xlink:href="#DejaVuSans-72" transform="translate(1611.234375 0)"/>
    <use xlink:href="#DejaVuSans-2d" transform="translate(1645.972656 0)"/>
    <use xlink:href="#DejaVuSans-73" transform="translate(1682.056641 0)"/>
    <use xlink:href="#DejaVuSans-77" transform="translate(1734.15625 0)"/>
    <use xlink:href="#DejaVuSans-65" transform="translate(1815.943359 0)"/>
    <use xlink:href="#DejaVuSans-65" transform="translate(1877.466797 0)"/>
    <use xlink:href="#DejaVuSans-70" transform="translate(1938.990234 0)"/>
    <use xlink:href="#DejaVuSans-2d" transform="translate(2002.466797 0)"/>
    <use xlink:href="#DejaVuSans-63" transform="translate(2038.550781 0)"/>
    <use xlink:href="#DejaVuSans-63" transform="translate(2093.53125 0)"/>
    <use xlink:href="#DejaVuSans-32" transform="translate(2148.511719 0)"/>
    <use xlink:href="#DejaVuSans-30" transform="translate(2212.134766 0)"/>
    <use xlink:href="#DejaVuSans-33" transform="translate(2275.757812 0)"/>
    <use xlink:href="#DejaVuSans-37" transform="translate(2339.380859 0)"/>
    <use xlink:href="#DejaVuSans-37" transform="translate(2403.003906 0)"/>
    <use xlink:href="#DejaVuSans-39" transform="translate(2466.626953 0)"/>
    <use xlink:href="#DejaVuSans-2d" transform="translate(2530.25 0)"/>
    <use xlink:href="#DejaVuSans-63" transform="translate(2566.333984 0)"/>
    <use xlink:href="#DejaVuSans-61" transform="translate(2621.314453 0)"/>
    <use xlink:href="#DejaVuSans-72" transform="translate(2682.59375 0)"/>
    <use xlink:href="#DejaVuSans-69" transform="translate(2723.707031 0)"/>
    <use xlink:href="#DejaVuSans-63" transform="translate(2751.490234 0)"/>
    <use xlink:href="#DejaVuSans-61" transform="translate(2806.470703 0)"/>
    <use xlink:href="#DejaVuSans-2e" transform="translate(2867.75 0)"/>
    <use xlink:href="#DejaVuSans-6a" transform="translate(2899.537109 0)"/>
    <use xlink:href="#DejaVuSans-73" transform="translate(2927.320312 0)"/>
    <use xlink:href="#DejaVuSans-6f" transform="translate(2979.419922 0)"/>
    <use xlink:href="#DejaVuSans-6e" transform="translate(3040.601562 0)"/>
    <use xlink:href="#DejaVuSans-3b" transform="translate(3103.980469 0)"/>
    <use xlink:href="#DejaVuSans-20" transform="translate(3137.671875 0)"/>
    <use xlink:href="#DejaVuSans-64" transform="translate(3169.458984 0)"/>
    <use xlink:href="#DejaVuSans-65" transform="translate(3232.935547 0)"/>
    <use xlink:href="#DejaVuSans-63" transform="translate(3294.458984 0)"/>
    <use xlink:href="#DejaVuSans-6c" transform="translate(3349.439453 0)"/>
    <use xlink:href="#DejaVuSans-69" transform="translate(3377.222656 0)"/>
    <use xlink:href="#DejaVuSans-6e" transform="translate(3405.005859 0)"/>
    <use xlink:href="#DejaVuSans-65" transform="translate(3468.384766 0)"/>
    <use xlink:href="#DejaVuSans-73" transform="translate(3529.908203 0)"/>
    <use xlink:href="#DejaVuSans-20" transform="translate(3582.007812 0)"/>
    <use xlink:href="#DejaVuSans-61" transform="translate(3613.794922 0)"/>
    <use xlink:href="#DejaVuSans-6e" transform="translate(3675.074219 0)"/>
    <use xlink:href="#DejaVuSans-64" transform="translate(3738.453125 0)"/>
    <use xlink:href="#DejaVuSans-20" transform="translate(3801.929688 0)"/>
    <use xlink:href="#DejaVuSans-74" transform="translate(3833.716797 0)"/>
    <use xlink:href="#DejaVuSans-69" transform="translate(3872.925781 0)"/>
    <use xlink:href="#DejaVuSans-6d" transform="translate(3900.708984 0)"/>
    <use xlink:href="#DejaVuSans-65" transform="translate(3998.121094 0)"/>
    <use xlink:href="#DejaVuSans-6f" transform="translate(4059.644531 0)"/>
    <use xlink:href="#DejaVuSans-75" transform="translate(4120.826172 0)"/>
    <use xlink:href="#DejaVuSans-74" transform="translate(4184.205078 0)"/>
    <use xlink:href="#DejaVuSans-73" transform="translate(4223.414062 0)"/>
    <use xlink:href="#DejaVuSans-20" transform="translate(4275.513672 0)"/>
    <use xlink:href="#DejaVuSans-63" transform="translate(4307.300781 0)"/>
    <use xlink:href="#DejaVuSans-6f" transform="translate(4362.28125 0)"/>
    <use xlink:href="#DejaVuSans-75" transform="translate(4423.462891 0)"/>
    <use xlink:href="#DejaVuSans-6e" transform="translate(4486.841797 0)"/>
    <use xlink:href="#DejaVuSans-74" transform="translate(4550.220703 0)"/>
    <use xlink:href="#DejaVuSans-20" transform="translate(4589.429688 0)"/>
    <use xlink:href="#DejaVuSans-61" transform="translate(4621.216797 0)"/>
    <use xlink:href="#DejaVuSans-73" transform="translate(4682.496094 0)"/>
    <use xlink:href="#DejaVuSans-20" transform="translate(4734.595703 0)"/>
    <use xlink:href="#DejaVuSans-75" transform="translate(4766.382812 0)"/>
    <use xlink:href="#DejaVuSans-6e" transform="translate(4829.761719 0)"/>
    <use xlink:href="#DejaVuSans-73" transform="translate(4893.140625 0)"/>
    <use xlink:href="#DejaVuSans-6f" transform="translate(4945.240234 0)"/>
    <use xlink:href="#DejaVuSans-6c" transform="translate(5006.421875 0)"/>
    <use xlink:href="#DejaVuSans-76" transform="translate(5034.205078 0)"/>
    <use xlink:href="#DejaVuSans-65" transform="translate(5093.384766 0)"/>
    <use xlink:href="#DejaVuSans-64" transform="translate(5154.908203 0)"/>
   </g>
  </g>
 </g>
 <defs>
  <clipPath id="p7ce7bae63e">
   <rect x="65.9" y="25.44" width="441.7" height="278.2"/>
  </clipPath>
 </defs>
</svg>
